<svg id="svg" version="1.1" xmlns="http://www.w3.org/2000/svg" xmlns:xlink="http://www.w3.org/1999/xlink" width="400" height="275.58528428093643" viewBox="0, 0, 400,275.58528428093643"><g id="svgg"><path id="path0" d="M124.788 48.426 C 124.687 48.527,124.604 48.962,124.604 49.393 C 124.604 49.885,124.347 50.399,123.915 50.775 C 123.483 51.150,123.225 51.666,123.225 52.154 C 123.225 52.641,122.967 53.157,122.536 53.532 C 122.126 53.889,121.847 54.426,121.847 54.860 C 121.847 55.282,121.556 55.863,121.158 56.237 C 120.596 56.765,120.469 57.146,120.469 58.303 C 120.469 59.472,120.348 59.827,119.779 60.321 C 119.341 60.702,119.090 61.210,119.090 61.717 C 119.090 62.263,118.873 62.656,118.401 62.966 C 117.794 63.363,117.712 63.612,117.712 65.055 C 117.712 66.411,117.617 66.744,117.161 66.988 C 116.799 67.182,116.609 67.565,116.609 68.102 C 116.609 68.633,116.366 69.133,115.920 69.521 C 115.510 69.878,115.231 70.415,115.231 70.849 C 115.231 71.271,114.940 71.852,114.542 72.226 C 113.980 72.754,113.853 73.135,113.853 74.292 C 113.853 75.461,113.732 75.816,113.163 76.310 C 112.716 76.698,112.474 77.198,112.474 77.731 C 112.474 78.304,112.265 78.691,111.785 79.005 C 111.191 79.395,111.096 79.662,111.096 80.943 C 111.096 82.185,110.982 82.528,110.407 83.029 C 109.996 83.386,109.717 83.923,109.717 84.357 C 109.717 84.779,109.427 85.360,109.028 85.734 C 108.627 86.111,108.339 86.689,108.339 87.118 C 108.339 87.523,108.091 88.078,107.788 88.353 C 107.368 88.733,107.236 89.202,107.236 90.319 C 107.236 91.580,107.139 91.850,106.547 92.238 C 106.038 92.571,105.858 92.932,105.858 93.616 C 105.858 94.300,105.678 94.661,105.169 94.994 C 104.566 95.390,104.480 95.644,104.480 97.037 C 104.480 98.429,104.394 98.683,103.790 99.079 C 103.327 99.383,103.101 99.783,103.101 100.303 C 103.101 100.771,102.829 101.331,102.412 101.723 C 102.013 102.098,101.723 102.678,101.723 103.101 C 101.723 103.525,101.433 104.105,101.034 104.480 C 100.467 105.012,100.345 105.386,100.345 106.589 C 100.345 107.844,100.247 108.115,99.655 108.502 C 99.147 108.835,98.966 109.196,98.966 109.877 C 98.966 110.519,98.798 110.891,98.415 111.096 C 97.967 111.336,97.864 111.673,97.864 112.899 C 97.864 114.164,97.753 114.504,97.174 115.007 C 96.764 115.364,96.485 115.901,96.485 116.335 C 96.485 116.757,96.194 117.338,95.796 117.712 C 95.397 118.087,95.107 118.667,95.107 119.090 C 95.107 119.513,94.817 120.094,94.418 120.469 C 93.851 121.001,93.728 121.375,93.728 122.578 C 93.728 123.833,93.631 124.104,93.039 124.491 C 92.537 124.821,92.350 125.187,92.350 125.844 C 92.350 126.502,92.163 126.868,91.661 127.197 C 91.062 127.590,90.972 127.850,90.972 129.188 C 90.972 130.501,90.871 130.807,90.283 131.269 C 89.805 131.645,89.593 132.081,89.593 132.690 C 89.593 133.270,89.406 133.685,89.042 133.913 C 88.703 134.125,88.491 134.555,88.491 135.034 C 88.491 135.506,88.220 136.064,87.802 136.458 C 87.234 136.990,87.112 137.364,87.112 138.567 C 87.112 139.822,87.015 140.093,86.423 140.480 C 85.921 140.809,85.734 141.176,85.734 141.833 C 85.734 142.491,85.547 142.857,85.045 143.186 C 84.448 143.577,84.356 143.841,84.356 145.149 C 84.356 146.418,84.245 146.757,83.666 147.260 C 83.256 147.617,82.977 148.155,82.977 148.589 C 82.977 149.010,82.686 149.591,82.288 149.966 C 81.889 150.340,81.599 150.921,81.599 151.344 C 81.599 151.767,81.309 152.347,80.910 152.722 C 80.343 153.255,80.221 153.629,80.221 154.828 C 80.221 156.004,80.114 156.344,79.669 156.582 C 79.282 156.789,79.118 157.159,79.118 157.826 C 79.118 158.533,78.943 158.889,78.429 159.226 C 77.835 159.615,77.739 159.883,77.739 161.164 C 77.739 162.406,77.626 162.749,77.050 163.249 C 76.640 163.606,76.361 164.144,76.361 164.578 C 76.361 164.999,76.070 165.580,75.672 165.955 C 75.273 166.329,74.983 166.910,74.983 167.333 C 74.983 167.756,74.693 168.336,74.294 168.711 C 73.727 169.244,73.604 169.618,73.604 170.820 C 73.604 172.076,73.507 172.346,72.915 172.734 C 72.407 173.067,72.226 173.428,72.226 174.109 C 72.226 174.750,72.058 175.122,71.675 175.327 C 71.226 175.567,71.123 175.905,71.123 177.131 C 71.123 178.396,71.012 178.736,70.434 179.238 C 70.024 179.595,69.745 180.132,69.745 180.567 C 69.745 180.988,69.454 181.569,69.056 181.943 C 68.657 182.318,68.367 182.899,68.367 183.322 C 68.367 183.745,68.077 184.325,67.677 184.700 C 67.110 185.233,66.988 185.607,66.988 186.809 C 66.988 188.064,66.891 188.335,66.299 188.723 C 65.797 189.052,65.610 189.418,65.610 190.076 C 65.610 190.733,65.423 191.100,64.921 191.429 C 64.412 191.762,64.232 192.123,64.232 192.807 C 64.232 193.492,64.051 193.852,63.542 194.186 C 62.950 194.574,62.853 194.843,62.853 196.104 C 62.853 197.221,62.722 197.690,62.302 198.070 C 61.999 198.345,61.751 198.901,61.751 199.305 C 61.751 199.734,61.463 200.312,61.061 200.689 C 60.494 201.222,60.372 201.596,60.372 202.798 C 60.372 204.053,60.275 204.324,59.683 204.712 C 59.180 205.041,58.994 205.407,58.994 206.065 C 58.994 206.722,58.807 207.089,58.305 207.418 C 57.796 207.751,57.615 208.112,57.615 208.796 C 57.615 209.481,57.435 209.841,56.926 210.175 C 56.335 210.562,56.237 210.833,56.237 212.088 C 56.237 213.291,56.115 213.664,55.548 214.197 C 55.149 214.572,54.859 215.152,54.859 215.575 C 54.859 215.999,54.569 216.579,54.170 216.954 C 53.603 217.486,53.480 217.860,53.480 219.060 C 53.480 220.236,53.374 220.575,52.929 220.813 C 52.542 221.021,52.378 221.390,52.378 222.057 C 52.378 222.765,52.203 223.121,51.688 223.457 C 51.234 223.755,50.999 224.163,50.999 224.656 C 50.999 225.100,50.715 225.671,50.299 226.062 C 49.675 226.648,49.607 226.904,49.678 228.384 L 49.759 230.048 197.283 230.117 C 356.557 230.192,346.262 230.281,344.440 228.847 C 343.875 228.403,343.763 228.076,343.763 226.870 C 343.763 225.683,343.640 225.311,343.074 224.786 C 342.640 224.385,342.385 223.847,342.385 223.339 C 342.385 222.781,342.171 222.391,341.695 222.079 C 341.093 221.684,341.006 221.429,341.006 220.046 C 341.006 218.763,340.902 218.400,340.455 218.120 C 340.115 217.909,339.904 217.478,339.904 217.000 C 339.904 216.528,339.633 215.969,339.214 215.575 C 338.816 215.201,338.525 214.620,338.525 214.199 C 338.525 213.764,338.246 213.227,337.836 212.870 C 337.260 212.370,337.147 212.027,337.147 210.785 C 337.147 209.504,337.052 209.236,336.458 208.847 C 335.967 208.525,335.768 208.148,335.768 207.537 C 335.768 206.976,335.530 206.458,335.079 206.041 C 334.526 205.528,334.390 205.137,334.390 204.058 C 334.390 202.982,334.253 202.586,333.701 202.068 C 333.299 201.690,333.012 201.113,333.012 200.684 C 333.012 200.279,332.764 199.723,332.460 199.449 C 332.157 199.174,331.909 198.619,331.909 198.215 C 331.909 197.775,331.633 197.240,331.220 196.881 C 330.641 196.378,330.531 196.039,330.531 194.770 C 330.531 193.462,330.438 193.198,329.841 192.807 C 329.339 192.478,329.152 192.112,329.152 191.454 C 329.152 190.797,328.966 190.430,328.463 190.101 C 327.871 189.713,327.774 189.443,327.774 188.188 C 327.774 186.985,327.652 186.611,327.085 186.079 C 326.686 185.704,326.396 185.123,326.396 184.700 C 326.396 184.277,326.105 183.697,325.706 183.322 C 325.307 182.947,325.017 182.367,325.017 181.943 C 325.017 181.520,324.727 180.940,324.328 180.565 C 323.761 180.033,323.639 179.658,323.639 178.459 C 323.639 177.283,323.532 176.944,323.088 176.706 C 322.700 176.498,322.536 176.129,322.536 175.462 C 322.536 174.754,322.361 174.398,321.847 174.061 C 321.258 173.675,321.158 173.401,321.158 172.173 C 321.158 170.998,321.033 170.620,320.469 170.090 C 320.070 169.715,319.779 169.134,319.779 168.711 C 319.779 168.288,319.489 167.708,319.090 167.333 C 318.523 166.800,318.401 166.426,318.401 165.224 C 318.401 163.969,318.304 163.698,317.712 163.310 C 317.229 162.994,317.023 162.610,317.023 162.026 C 317.023 161.492,316.776 160.964,316.334 160.555 C 315.900 160.153,315.644 159.616,315.644 159.108 C 315.644 158.549,315.431 158.159,314.955 157.848 C 314.353 157.453,314.266 157.197,314.266 155.815 C 314.266 154.532,314.162 154.168,313.715 153.889 C 313.375 153.677,313.163 153.246,313.163 152.768 C 313.163 152.296,312.893 151.737,312.474 151.344 C 311.907 150.811,311.785 150.437,311.785 149.235 C 311.785 147.980,311.688 147.709,311.096 147.321 C 310.593 146.992,310.407 146.626,310.407 145.968 C 310.407 145.311,310.220 144.945,309.717 144.615 C 309.209 144.282,309.028 143.921,309.028 143.237 C 309.028 142.553,308.848 142.192,308.339 141.859 C 307.747 141.471,307.650 141.200,307.650 139.945 C 307.650 138.742,307.528 138.369,306.961 137.836 C 306.562 137.461,306.272 136.881,306.272 136.458 C 306.272 136.034,305.981 135.454,305.582 135.079 C 305.016 134.547,304.893 134.173,304.893 132.973 C 304.893 131.797,304.787 131.458,304.342 131.220 C 303.954 131.013,303.790 130.643,303.790 129.976 C 303.790 129.268,303.615 128.913,303.101 128.576 C 302.599 128.246,302.412 127.880,302.412 127.223 C 302.412 126.565,302.226 126.199,301.723 125.870 C 301.131 125.482,301.034 125.211,301.034 123.956 C 301.034 122.753,300.912 122.380,300.345 121.847 C 299.933 121.460,299.655 120.894,299.655 120.441 C 299.655 119.959,299.403 119.483,298.966 119.140 C 298.382 118.680,298.277 118.369,298.277 117.102 C 298.277 115.850,298.165 115.508,297.588 115.007 C 297.150 114.626,296.899 114.117,296.899 113.610 C 296.899 113.064,296.682 112.671,296.210 112.362 C 295.607 111.967,295.520 111.711,295.520 110.329 C 295.520 109.046,295.416 108.682,294.969 108.403 C 294.630 108.191,294.418 107.760,294.418 107.282 C 294.418 106.810,294.147 106.251,293.728 105.858 C 293.329 105.483,293.039 104.903,293.039 104.480 C 293.039 104.056,292.749 103.476,292.350 103.101 C 291.786 102.571,291.661 102.193,291.661 101.017 C 291.661 99.789,291.561 99.515,290.972 99.129 C 290.481 98.808,290.283 98.431,290.283 97.820 C 290.283 97.259,290.044 96.741,289.593 96.323 C 289.030 95.801,288.904 95.425,288.904 94.264 C 288.904 93.077,288.791 92.754,288.215 92.301 C 287.776 91.955,287.526 91.481,287.526 90.994 C 287.526 90.574,287.278 90.006,286.975 89.731 C 286.671 89.457,286.423 88.902,286.423 88.498 C 286.423 88.058,286.147 87.523,285.734 87.164 C 285.155 86.661,285.045 86.322,285.045 85.053 C 285.045 83.745,284.952 83.481,284.356 83.090 C 283.853 82.760,283.666 82.394,283.666 81.737 C 283.666 81.079,283.480 80.713,282.977 80.384 C 282.386 79.996,282.288 79.725,282.288 78.470 C 282.288 77.268,282.166 76.894,281.599 76.361 C 281.200 75.986,280.910 75.406,280.910 74.983 C 280.910 74.560,280.620 73.979,280.221 73.604 C 279.821 73.230,279.531 72.649,279.531 72.226 C 279.531 71.803,279.241 71.223,278.842 70.848 C 278.275 70.315,278.153 69.941,278.153 68.742 C 278.153 67.565,278.046 67.226,277.602 66.988 C 277.214 66.781,277.050 66.411,277.050 65.744 C 277.050 65.037,276.875 64.681,276.361 64.344 C 275.772 63.958,275.672 63.684,275.672 62.456 C 275.672 61.280,275.547 60.902,274.983 60.372 C 274.584 59.997,274.294 59.417,274.294 58.994 C 274.294 58.571,274.003 57.990,273.604 57.615 C 273.193 57.229,272.915 56.662,272.915 56.209 C 272.915 55.728,272.663 55.252,272.226 54.908 C 271.639 54.446,271.537 54.140,271.537 52.836 C 271.537 51.583,271.430 51.231,270.944 50.891 C 270.595 50.647,270.282 50.047,270.182 49.428 L 270.011 48.380 197.492 48.311 C 157.606 48.273,124.889 48.324,124.788 48.426 M199.202 62.789 C 199.370 62.900,199.658 63.456,199.844 64.025 C 200.029 64.593,200.293 65.059,200.431 65.059 C 200.569 65.059,200.822 65.617,200.994 66.299 C 201.165 66.981,201.405 67.540,201.527 67.540 C 201.648 67.540,201.963 68.189,202.227 68.984 C 202.491 69.778,202.935 70.801,203.213 71.258 C 203.492 71.715,203.720 72.413,203.721 72.809 C 203.721 73.206,203.971 73.847,204.275 74.234 C 204.580 74.621,204.907 75.351,205.002 75.856 C 205.096 76.361,205.410 77.036,205.699 77.355 C 205.988 77.675,206.297 78.419,206.385 79.009 C 206.473 79.600,206.704 80.212,206.899 80.370 C 207.094 80.527,207.387 81.148,207.552 81.748 C 207.716 82.348,208.162 83.450,208.543 84.196 C 208.923 84.941,209.235 85.841,209.235 86.194 C 209.235 86.548,209.344 86.837,209.477 86.837 C 209.741 86.837,210.190 87.886,210.470 89.158 C 210.568 89.601,210.874 90.251,211.151 90.603 C 211.427 90.955,211.737 91.685,211.838 92.225 C 211.940 92.766,212.264 93.449,212.558 93.744 C 212.887 94.072,213.094 94.657,213.094 95.253 C 213.094 95.862,213.249 96.286,213.506 96.385 C 213.732 96.471,214.104 97.170,214.332 97.938 C 214.559 98.706,214.938 99.546,215.172 99.805 C 215.407 100.064,215.673 100.757,215.764 101.344 C 215.855 101.932,216.160 102.634,216.442 102.905 C 216.723 103.177,216.956 103.673,216.958 104.008 C 216.960 104.343,217.142 104.928,217.362 105.307 C 217.582 105.686,218.003 106.492,218.296 107.099 C 218.896 108.335,220.359 109.442,221.395 109.442 C 221.773 109.442,222.217 109.577,222.383 109.743 C 222.582 109.943,222.856 109.956,223.196 109.781 C 223.477 109.636,224.381 109.442,225.203 109.349 C 226.026 109.257,226.770 109.081,226.857 108.960 C 226.944 108.839,227.357 108.523,227.774 108.257 L 228.532 107.775 228.532 87.706 L 228.532 67.638 227.460 66.936 C 226.871 66.550,225.910 66.149,225.324 66.045 C 223.593 65.738,223.294 65.598,223.294 65.095 C 223.294 64.058,223.803 63.956,228.932 63.959 L 233.908 63.962 234.804 64.884 C 235.296 65.391,235.700 65.929,235.700 66.079 C 235.700 66.229,235.936 66.566,236.226 66.828 C 236.515 67.090,236.909 67.683,237.101 68.147 C 237.293 68.610,237.747 69.314,238.110 69.712 C 239.318 71.033,239.484 71.255,239.944 72.157 C 240.195 72.650,240.501 73.053,240.624 73.053 C 240.748 73.053,240.993 73.332,241.168 73.673 C 241.344 74.014,241.920 74.852,242.447 75.534 C 242.975 76.216,243.589 77.178,243.812 77.671 C 244.035 78.163,244.354 78.567,244.521 78.567 C 244.689 78.567,244.952 78.929,245.106 79.371 C 245.260 79.814,245.560 80.243,245.772 80.324 C 245.984 80.406,246.341 80.912,246.566 81.449 C 246.790 81.986,247.092 82.426,247.236 82.426 C 247.381 82.426,247.756 82.829,248.071 83.322 C 248.386 83.815,248.801 84.465,248.994 84.767 C 249.187 85.069,249.624 85.668,249.966 86.098 C 250.307 86.527,250.586 87.010,250.586 87.171 C 250.586 87.331,250.865 87.740,251.206 88.080 C 251.547 88.420,252.136 89.158,252.516 89.721 C 252.895 90.284,253.525 91.137,253.916 91.617 C 254.308 92.096,254.707 92.705,254.804 92.970 C 254.900 93.236,255.099 93.453,255.245 93.453 C 255.391 93.453,255.585 93.686,255.675 93.970 C 255.765 94.255,256.149 94.844,256.528 95.280 C 256.906 95.715,257.288 96.351,257.377 96.692 C 257.465 97.033,257.713 97.312,257.928 97.312 C 258.143 97.312,258.470 97.653,258.656 98.070 C 258.929 98.682,259.008 95.912,259.065 83.691 C 259.124 71.153,259.071 68.452,258.754 67.969 C 258.322 67.310,256.444 66.299,254.997 65.947 C 254.166 65.745,254.032 65.600,254.032 64.903 L 254.032 64.094 260.808 64.020 C 267.164 63.951,267.613 63.979,268.057 64.470 C 268.674 65.152,268.157 65.734,266.690 66.009 C 266.132 66.114,265.198 66.501,264.615 66.870 C 264.031 67.238,263.442 67.540,263.307 67.540 C 262.777 67.540,262.715 69.967,262.715 90.675 C 262.715 106.962,262.636 112.167,262.385 112.419 C 261.558 113.245,259.614 112.509,259.298 111.250 C 259.142 110.626,258.788 110.161,257.182 108.467 C 256.890 108.159,256.651 107.762,256.651 107.585 C 256.651 107.409,256.340 106.930,255.961 106.521 C 255.582 106.112,255.272 105.624,255.272 105.436 C 255.272 105.248,254.962 104.891,254.583 104.643 C 254.204 104.394,253.894 104.027,253.894 103.827 C 253.894 103.626,253.649 103.241,253.350 102.970 C 253.050 102.699,252.726 102.214,252.630 101.893 C 252.465 101.342,252.120 100.907,250.655 99.402 C 250.314 99.052,250.034 98.641,250.034 98.490 C 250.034 98.339,249.662 97.747,249.207 97.174 C 248.753 96.602,248.380 96.032,248.380 95.908 C 248.380 95.785,248.101 95.379,247.760 95.008 C 247.419 94.636,247.015 94.165,246.862 93.961 C 246.709 93.758,246.185 93.081,245.698 92.459 C 245.212 91.836,244.689 90.999,244.536 90.598 C 244.384 90.197,244.144 89.869,244.004 89.869 C 243.764 89.869,242.988 88.789,242.033 87.127 C 241.524 86.242,241.045 85.639,240.041 84.625 C 239.624 84.204,239.283 83.766,239.283 83.653 C 239.283 83.292,237.334 80.496,237.082 80.496 C 236.948 80.496,236.765 80.262,236.674 79.976 C 236.583 79.689,236.203 79.125,235.829 78.721 C 235.454 78.317,235.148 77.824,235.148 77.626 C 235.148 77.028,233.240 75.157,233.073 75.592 C 232.567 76.910,233.097 107.844,233.632 108.214 C 233.935 108.424,234.354 108.744,234.563 108.925 C 234.772 109.106,235.542 109.311,236.274 109.382 C 237.931 109.541,238.725 110.237,238.036 110.925 C 237.507 111.454,223.477 111.614,223.156 111.095 C 223.042 110.911,222.811 110.912,222.461 111.099 C 221.421 111.656,205.075 111.321,204.716 110.735 C 204.238 109.955,205.177 109.442,207.082 109.442 C 209.795 109.442,210.486 107.980,209.103 105.169 C 208.730 104.411,208.421 103.468,208.417 103.075 C 208.412 102.681,208.160 102.073,207.857 101.723 C 207.553 101.373,207.305 100.887,207.305 100.643 C 207.305 100.399,206.928 99.425,206.467 98.480 L 205.628 96.761 196.004 96.761 L 186.380 96.761 186.115 97.722 C 185.969 98.251,185.653 98.880,185.413 99.120 C 185.172 99.360,184.976 99.904,184.976 100.327 C 184.976 100.751,184.729 101.411,184.428 101.794 C 184.127 102.177,183.741 103.155,183.570 103.967 C 183.399 104.780,183.088 105.640,182.877 105.880 C 181.605 107.328,182.779 109.442,184.857 109.442 C 186.326 109.442,187.186 110.225,186.485 110.925 C 185.857 111.554,174.482 111.600,173.964 110.976 C 173.326 110.207,174.080 109.442,175.475 109.442 C 176.643 109.442,177.808 108.775,177.808 108.106 C 177.808 107.977,178.057 107.586,178.360 107.236 C 178.663 106.887,178.911 106.363,178.911 106.073 C 178.911 105.468,179.397 104.470,179.888 104.066 C 180.072 103.915,180.294 103.310,180.382 102.723 C 180.470 102.135,180.722 101.453,180.944 101.206 C 181.165 100.960,181.432 100.292,181.538 99.722 C 181.644 99.152,181.954 98.401,182.228 98.053 C 182.501 97.705,182.809 96.931,182.911 96.333 C 183.014 95.734,183.315 94.935,183.580 94.555 C 183.845 94.176,184.147 93.414,184.251 92.860 C 184.354 92.307,184.668 91.563,184.947 91.206 C 185.227 90.850,185.547 90.124,185.659 89.593 C 185.771 89.063,186.087 88.256,186.361 87.802 C 186.635 87.347,186.945 86.514,187.049 85.951 C 187.154 85.387,187.415 84.781,187.629 84.603 C 187.844 84.424,188.154 83.745,188.318 83.094 C 188.482 82.442,188.852 81.696,189.139 81.435 C 189.446 81.158,189.662 80.596,189.662 80.077 C 189.662 79.590,189.898 78.892,190.187 78.525 C 190.476 78.158,190.845 77.366,191.007 76.765 C 191.170 76.164,191.480 75.420,191.696 75.113 C 191.912 74.805,192.237 73.999,192.418 73.321 C 192.598 72.643,192.907 71.902,193.103 71.675 C 193.300 71.447,193.550 70.827,193.659 70.296 C 193.768 69.766,194.074 68.959,194.339 68.504 C 194.604 68.050,194.978 67.091,195.170 66.373 C 195.363 65.656,195.691 64.927,195.899 64.754 C 196.108 64.581,196.278 64.248,196.278 64.013 C 196.278 62.930,198.203 62.124,199.202 62.789 M155.972 64.645 C 156.684 65.024,157.640 65.336,158.096 65.338 C 158.552 65.341,159.235 65.523,159.614 65.744 C 159.993 65.966,160.698 66.334,161.180 66.563 C 161.663 66.792,162.136 67.108,162.233 67.264 C 162.329 67.420,162.865 67.785,163.423 68.075 C 164.934 68.859,167.609 71.597,167.609 72.358 C 167.609 72.552,167.791 72.861,168.014 73.046 C 168.655 73.579,170.084 76.636,170.266 77.864 C 170.356 78.478,170.633 79.290,170.880 79.669 C 171.580 80.742,171.552 93.149,170.848 93.928 C 170.559 94.246,170.365 94.900,170.365 95.553 C 170.365 96.153,170.144 97.077,169.874 97.607 C 169.605 98.136,169.160 99.155,168.887 99.871 C 168.614 100.586,168.285 101.172,168.156 101.172 C 168.027 101.172,167.836 101.451,167.731 101.792 C 167.524 102.466,166.994 103.079,164.379 105.674 C 162.297 107.739,161.179 108.615,160.625 108.615 C 160.396 108.615,159.853 108.913,159.419 109.278 C 158.953 109.670,158.071 110.024,157.262 110.144 C 156.509 110.255,155.597 110.577,155.235 110.859 C 154.192 111.672,126.152 111.653,125.717 110.839 C 125.314 110.088,126.038 109.442,127.281 109.442 C 128.945 109.442,130.627 108.415,130.954 107.198 C 131.135 106.528,131.207 99.339,131.158 86.967 L 131.082 67.776 130.122 66.992 C 129.460 66.452,128.711 66.152,127.710 66.027 C 125.785 65.787,125.086 65.167,125.864 64.389 C 126.247 64.006,127.955 63.956,140.487 63.956 L 154.677 63.956 155.972 64.645 M139.559 67.427 C 139.288 67.552,139.214 71.685,139.214 86.740 C 139.214 105.617,139.273 106.961,140.098 106.961 C 140.271 106.961,140.651 107.178,140.945 107.443 C 141.739 108.162,149.768 108.163,150.783 107.445 C 151.156 107.180,152.055 106.885,152.780 106.789 C 153.505 106.693,154.365 106.382,154.693 106.098 C 155.020 105.815,155.396 105.582,155.528 105.582 C 156.042 105.582,158.565 103.469,159.067 102.619 C 159.358 102.126,159.724 101.723,159.880 101.723 C 160.037 101.723,160.165 101.531,160.165 101.296 C 160.165 101.062,160.458 100.596,160.815 100.263 C 161.239 99.867,161.535 99.184,161.666 98.303 C 161.776 97.560,162.092 96.629,162.368 96.236 C 163.491 94.634,163.298 80.097,162.124 77.888 C 161.805 77.287,161.544 76.531,161.544 76.208 C 161.544 75.884,161.299 75.398,160.999 75.127 C 160.700 74.856,160.376 74.384,160.279 74.078 C 159.948 73.037,156.751 70.310,155.264 69.802 C 154.767 69.631,154.187 69.320,153.976 69.109 C 153.766 68.898,152.816 68.644,151.867 68.545 C 150.918 68.446,149.831 68.161,149.451 67.912 C 148.751 67.454,140.393 67.044,139.559 67.427 M195.763 74.518 C 195.592 74.945,195.451 75.391,195.451 75.509 C 195.451 75.628,195.203 75.949,194.900 76.223 C 194.597 76.498,194.349 77.058,194.349 77.469 C 194.349 77.880,194.111 78.519,193.820 78.889 C 193.529 79.258,193.202 80.036,193.093 80.618 C 192.984 81.199,192.655 81.914,192.362 82.208 C 192.068 82.501,191.731 83.353,191.613 84.102 C 191.495 84.850,191.207 85.679,190.974 85.943 C 190.741 86.207,190.459 86.857,190.346 87.388 C 190.234 87.919,189.913 88.645,189.634 89.001 C 189.354 89.358,189.046 90.102,188.949 90.655 C 188.853 91.208,188.591 91.951,188.369 92.305 C 187.746 93.297,187.839 93.310,195.956 93.387 C 203.986 93.462,204.776 93.362,203.892 92.387 C 203.620 92.085,203.279 91.316,203.135 90.678 C 202.992 90.039,202.631 89.208,202.333 88.829 C 202.035 88.450,201.792 87.877,201.792 87.555 C 201.792 87.233,201.499 86.413,201.142 85.732 C 200.785 85.051,200.405 84.131,200.298 83.688 C 200.191 83.245,199.863 82.577,199.569 82.204 C 199.276 81.830,199.035 81.126,199.035 80.640 C 199.035 80.108,198.817 79.558,198.489 79.261 C 198.189 78.989,197.865 78.348,197.769 77.837 C 197.673 77.326,197.370 76.622,197.096 76.274 C 196.822 75.925,196.480 75.213,196.336 74.691 L 196.075 73.742 195.763 74.518 M217.429 136.802 C 217.721 137.067,218.545 137.393,219.259 137.526 C 219.973 137.659,220.770 137.946,221.030 138.162 C 221.290 138.379,221.875 138.716,222.329 138.910 C 222.784 139.105,223.343 139.438,223.570 139.650 C 225.995 141.908,227.705 143.659,227.705 143.883 C 227.705 144.034,227.943 144.284,228.234 144.440 C 228.525 144.596,228.902 145.144,229.072 145.657 C 229.241 146.171,229.611 146.800,229.893 147.056 C 230.176 147.311,230.485 147.934,230.580 148.440 C 230.674 148.945,230.921 149.499,231.128 149.671 C 231.335 149.843,231.587 150.569,231.689 151.284 C 231.790 151.999,232.135 153.515,232.454 154.652 C 233.289 157.620,233.296 165.229,232.466 167.884 C 232.158 168.870,231.818 170.321,231.711 171.109 C 231.604 171.898,231.345 172.686,231.134 172.860 C 230.924 173.035,230.674 173.595,230.578 174.106 C 230.482 174.616,230.107 175.354,229.744 175.746 C 229.380 176.138,229.083 176.691,229.083 176.976 C 229.083 177.260,228.773 177.737,228.394 178.035 C 228.015 178.333,227.705 178.666,227.705 178.774 C 227.705 179.216,222.900 183.567,222.228 183.734 C 221.829 183.833,221.254 184.137,220.951 184.410 C 220.648 184.682,219.863 184.972,219.207 185.055 C 218.551 185.137,217.763 185.432,217.456 185.711 C 216.406 186.662,204.558 186.600,203.596 185.638 C 203.366 185.408,202.551 185.120,201.786 185.000 C 201.021 184.879,200.244 184.589,200.059 184.357 C 199.875 184.124,199.289 183.797,198.757 183.629 C 198.225 183.461,197.295 182.898,196.690 182.379 C 196.084 181.859,195.124 181.040,194.555 180.558 C 193.987 180.075,193.522 179.535,193.522 179.357 C 193.522 179.179,193.274 178.821,192.970 178.562 C 192.667 178.302,192.419 177.924,192.419 177.721 C 192.419 177.519,192.123 177.075,191.760 176.734 C 191.398 176.394,191.030 175.756,190.942 175.317 C 190.854 174.877,190.530 174.266,190.222 173.958 C 189.914 173.650,189.662 173.055,189.662 172.635 C 189.662 172.216,189.383 171.379,189.042 170.775 C 188.436 169.702,188.422 169.478,188.422 161.268 C 188.422 153.028,188.434 152.840,189.042 151.863 C 189.383 151.314,189.662 150.476,189.662 149.999 C 189.662 149.475,189.879 148.947,190.212 148.662 C 190.515 148.403,190.837 147.794,190.928 147.310 C 191.019 146.825,191.392 146.148,191.756 145.806 C 192.121 145.463,192.419 145.038,192.419 144.861 C 192.419 143.860,197.144 139.421,198.759 138.904 C 199.290 138.734,199.972 138.378,200.276 138.113 C 200.579 137.848,201.364 137.564,202.020 137.481 C 202.676 137.399,203.420 137.146,203.674 136.920 C 204.681 136.020,216.455 135.919,217.429 136.802 M271.759 136.822 C 272.137 137.165,272.990 137.389,274.443 137.528 C 276.432 137.718,276.633 137.798,277.500 138.744 L 278.429 139.758 278.429 143.117 C 278.429 147.260,278.296 147.484,275.858 147.484 C 273.943 147.484,273.191 147.007,273.191 145.792 C 273.191 144.156,272.543 142.486,271.748 142.076 C 271.329 141.859,270.986 141.574,270.986 141.443 C 270.986 141.312,270.526 141.119,269.965 141.014 C 269.403 140.909,268.442 140.554,267.828 140.225 C 266.122 139.312,259.638 139.328,258.467 140.248 C 258.034 140.589,257.328 140.868,256.900 140.868 C 256.471 140.868,255.899 141.101,255.628 141.386 C 255.356 141.670,254.837 141.994,254.473 142.106 C 253.758 142.326,251.964 143.987,251.964 144.429 C 251.964 144.578,251.791 144.800,251.579 144.921 C 251.367 145.042,250.908 145.637,250.558 146.244 C 250.208 146.850,249.814 147.422,249.682 147.513 C 249.550 147.605,249.320 148.223,249.171 148.888 C 249.022 149.552,248.704 150.312,248.464 150.577 C 248.186 150.884,247.951 151.906,247.815 153.397 C 247.698 154.684,247.439 156.206,247.239 156.779 C 246.769 158.126,246.751 164.358,247.212 165.679 C 247.397 166.210,247.658 167.720,247.790 169.035 C 247.969 170.800,248.186 171.622,248.620 172.174 C 248.943 172.584,249.207 173.128,249.207 173.381 C 249.207 173.635,249.518 174.262,249.897 174.776 C 250.276 175.290,250.586 175.816,250.586 175.946 C 250.586 177.213,256.482 181.481,258.718 181.832 C 259.325 181.927,260.131 182.205,260.510 182.448 C 261.671 183.195,266.765 183.257,268.277 182.542 C 268.933 182.232,269.841 181.867,270.296 181.732 L 271.123 181.484 271.199 176.279 C 271.294 169.649,271.048 168.747,268.603 166.792 C 268.430 166.653,267.564 166.439,266.677 166.315 C 264.981 166.078,264.502 165.551,265.207 164.701 C 265.728 164.073,283.439 164.107,283.961 164.737 C 284.531 165.423,283.930 166.054,282.399 166.378 C 278.461 167.210,278.479 167.163,278.449 176.652 L 278.429 183.077 277.533 183.899 C 276.542 184.808,276.337 184.872,273.707 185.101 C 272.702 185.188,271.462 185.475,270.951 185.738 C 270.159 186.145,269.024 186.229,263.331 186.303 L 256.641 186.390 255.147 185.683 C 254.325 185.294,253.280 184.976,252.824 184.976 C 252.334 184.976,251.848 184.769,251.635 184.469 C 251.437 184.190,250.954 183.883,250.563 183.786 C 249.553 183.537,244.534 179.454,244.524 178.875 C 244.522 178.779,243.966 178.097,243.288 177.359 C 242.610 176.620,241.973 175.644,241.874 175.190 C 241.774 174.735,241.475 174.085,241.209 173.745 C 240.943 173.406,240.638 172.538,240.531 171.816 C 240.424 171.094,240.148 170.292,239.917 170.034 C 238.767 168.748,238.658 153.966,239.785 152.056 C 240.114 151.497,240.461 150.556,240.556 149.964 C 240.651 149.372,240.961 148.677,241.246 148.419 C 241.531 148.161,241.764 147.654,241.764 147.291 C 241.764 146.928,242.057 146.358,242.415 146.024 C 242.773 145.690,243.146 145.161,243.244 144.848 C 243.440 144.224,247.320 140.317,247.745 140.317 C 247.890 140.317,248.290 140.017,248.634 139.651 C 248.978 139.285,249.579 138.905,249.970 138.807 C 250.361 138.709,250.986 138.388,251.359 138.095 C 251.733 137.801,252.425 137.560,252.897 137.559 C 253.370 137.558,254.128 137.356,254.583 137.109 C 256.094 136.292,257.012 136.211,264.134 136.266 C 270.542 136.315,271.256 136.367,271.759 136.822 M136.453 138.318 C 136.776 138.665,137.360 138.940,137.778 138.941 C 138.812 138.944,141.660 141.675,142.613 143.579 C 143.763 145.874,143.714 150.803,142.518 153.196 C 141.282 155.668,137.243 159.614,135.948 159.614 C 134.521 159.614,135.846 161.331,137.514 161.643 C 138.971 161.915,143.080 165.499,143.518 166.879 C 143.620 167.199,143.964 167.814,144.284 168.247 C 145.303 169.624,145.155 176.893,144.070 178.773 C 142.642 181.248,140.105 183.408,138.219 183.756 C 137.629 183.864,136.851 184.183,136.489 184.464 C 135.552 185.194,111.678 185.264,111.077 184.539 C 110.452 183.787,111.114 183.207,112.850 182.987 C 113.706 182.879,114.561 182.657,114.750 182.495 C 114.939 182.333,115.341 182.029,115.644 181.819 C 116.185 181.444,116.197 181.078,116.278 162.324 C 116.364 142.311,116.318 140.942,115.556 140.673 C 115.301 140.583,114.907 140.354,114.680 140.165 C 114.452 139.976,113.597 139.715,112.779 139.586 C 111.111 139.324,110.474 138.723,111.083 137.989 C 111.415 137.590,112.704 137.552,123.664 137.621 L 135.875 137.698 136.453 138.318 M168.517 138.049 C 169.287 138.900,168.051 139.766,166.066 139.766 C 165.501 139.766,165.050 139.923,164.962 140.152 C 164.880 140.365,164.576 140.601,164.285 140.677 C 163.246 140.948,163.198 141.827,163.198 160.438 C 163.198 179.718,163.283 181.202,164.412 181.505 C 165.177 181.710,177.225 181.706,177.993 181.500 C 178.636 181.327,179.040 180.509,179.324 178.802 C 179.647 176.862,180.127 176.430,181.965 176.430 C 184.049 176.430,184.149 176.625,184.149 180.703 C 184.149 185.527,186.386 184.976,166.790 184.976 C 150.114 184.976,150.002 184.972,149.824 184.411 C 149.550 183.551,150.162 183.046,151.478 183.046 C 152.230 183.046,152.898 182.849,153.349 182.495 C 153.734 182.192,154.181 181.943,154.341 181.943 C 155.298 181.943,155.341 181.056,155.341 161.268 C 155.341 141.276,155.306 140.593,154.284 140.593 C 154.092 140.593,153.781 140.438,153.593 140.248 C 153.404 140.059,152.555 139.779,151.705 139.628 C 149.990 139.322,149.344 138.723,149.946 137.997 C 150.530 137.293,167.877 137.342,168.517 138.049 M208.270 139.716 C 207.815 139.819,207.067 140.110,206.607 140.362 C 206.147 140.615,205.309 140.908,204.746 141.013 C 204.148 141.125,203.722 141.365,203.722 141.588 C 203.722 141.799,203.544 141.971,203.328 141.971 C 202.870 141.971,200.965 143.694,200.965 144.108 C 200.965 144.263,200.655 144.592,200.276 144.840 C 199.897 145.089,199.586 145.424,199.586 145.587 C 199.586 145.749,199.342 146.193,199.042 146.573 C 198.743 146.953,198.416 147.717,198.315 148.271 C 198.214 148.824,197.914 149.587,197.648 149.967 C 197.374 150.358,197.075 151.496,196.959 152.586 C 196.846 153.646,196.585 154.995,196.378 155.583 C 196.119 156.321,196.003 158.079,196.003 161.268 C 196.003 164.457,196.119 166.216,196.378 166.954 C 196.585 167.541,196.844 168.890,196.955 169.952 C 197.066 171.013,197.378 172.254,197.649 172.708 C 197.919 173.163,198.221 173.984,198.318 174.531 C 198.415 175.079,198.740 175.750,199.041 176.021 C 199.341 176.293,199.586 176.653,199.586 176.822 C 199.586 177.133,202.237 179.918,203.607 181.048 C 204.022 181.389,204.625 181.668,204.947 181.668 C 205.270 181.668,206.026 181.939,206.627 182.270 C 208.079 183.071,212.993 183.193,213.823 182.449 C 214.105 182.197,214.801 181.904,215.370 181.798 C 216.309 181.624,217.308 181.000,219.114 179.460 C 219.468 179.158,219.859 178.911,219.983 178.911 C 220.107 178.911,220.346 178.516,220.514 178.033 C 220.682 177.550,221.001 176.955,221.222 176.711 C 221.972 175.882,223.015 173.654,223.198 172.490 C 223.299 171.852,223.556 171.059,223.771 170.728 C 224.946 168.914,224.941 153.734,223.764 151.853 C 223.542 151.497,223.282 150.684,223.188 150.047 C 223.016 148.887,221.980 146.663,221.222 145.826 C 221.001 145.581,220.682 144.986,220.514 144.503 C 220.346 144.020,220.081 143.625,219.927 143.625 C 219.772 143.625,219.247 143.284,218.760 142.867 C 216.873 141.252,216.257 140.868,215.553 140.868 C 215.151 140.868,214.492 140.608,214.088 140.290 C 213.297 139.668,209.939 139.337,208.270 139.716 M124.535 141.041 C 124.088 141.174,124.052 141.842,124.052 149.986 L 124.052 158.787 126.421 158.787 C 128.372 158.787,128.913 158.690,129.491 158.236 C 129.876 157.932,130.508 157.684,130.894 157.684 C 132.316 157.684,134.640 154.835,135.055 152.584 C 135.695 149.111,135.703 148.822,135.216 146.751 C 134.593 144.106,133.519 142.704,131.771 142.254 C 131.089 142.079,130.236 141.744,129.877 141.511 C 129.218 141.084,125.491 140.756,124.535 141.041 M124.397 162.537 C 123.816 162.799,123.911 178.668,124.502 179.913 C 125.368 181.739,130.038 182.533,131.803 181.154 C 132.165 180.872,132.771 180.548,133.150 180.435 C 136.373 179.471,138.703 172.354,136.815 169.238 C 136.501 168.721,136.151 167.988,136.037 167.609 C 135.829 166.918,134.144 165.127,133.702 165.127 C 133.573 165.127,133.112 164.829,132.678 164.463 C 132.209 164.069,131.233 163.678,130.276 163.501 C 129.389 163.337,128.499 163.066,128.298 162.899 C 127.894 162.564,124.943 162.290,124.397 162.537 " stroke="none" fill="#3c4ccc" fill-rule="evenodd"></path><path id="path1" d="M5.641 8.615 C 5.569 8.804,5.542 67.698,5.581 139.490 L 5.651 270.021 36.802 270.021 L 67.953 270.021 67.953 253.618 L 67.953 237.216 54.307 237.146 C 41.869 237.083,40.631 237.035,40.317 236.611 C 39.785 235.893,39.813 38.242,40.345 37.801 C 40.619 37.573,87.186 37.474,216.844 37.423 L 392.970 37.354 392.970 22.881 L 392.970 8.408 199.371 8.339 C 44.636 8.284,5.746 8.339,5.641 8.615 " stroke="none" fill="#faf32c" fill-rule="evenodd"></path><path id="path2" d="M0.000 0.689 L 0.000 1.378 200.000 1.378 L 400.000 1.378 400.000 0.689 L 400.000 0.000 200.000 0.000 L 0.000 0.000 0.000 0.689 M5.569 8.325 C 5.086 8.808,5.086 269.621,5.569 270.103 C 6.142 270.677,67.979 270.573,68.199 269.998 C 68.544 269.101,68.386 237.484,68.036 237.133 C 67.788 236.885,64.355 236.802,54.286 236.802 C 43.337 236.802,40.810 236.734,40.557 236.429 C 40.329 236.154,40.266 209.994,40.317 136.980 L 40.386 37.905 216.512 37.836 C 346.846 37.785,392.736 37.686,393.014 37.455 C 393.323 37.199,393.376 34.599,393.317 22.638 L 393.246 8.132 199.573 8.063 C 49.166 8.010,5.826 8.068,5.569 8.325 M392.970 22.881 L 392.970 37.354 216.844 37.423 C 87.186 37.474,40.619 37.573,40.345 37.801 C 39.813 38.242,39.785 235.893,40.317 236.611 C 40.631 237.035,41.869 237.083,54.307 237.146 L 67.953 237.216 67.953 253.618 L 67.953 270.021 36.802 270.021 L 5.651 270.021 5.581 139.490 C 5.542 67.698,5.569 8.804,5.641 8.615 C 5.746 8.339,44.636 8.284,199.371 8.339 L 392.970 8.408 392.970 22.881 M47.195 48.573 C 46.657 49.112,46.720 214.837,47.259 215.284 C 47.732 215.677,48.243 214.924,48.243 213.833 C 48.243 213.417,48.507 212.985,48.932 212.706 C 49.446 212.369,49.621 212.014,49.621 211.306 C 49.621 210.639,49.785 210.269,50.172 210.062 C 50.621 209.822,50.724 209.485,50.724 208.259 C 50.724 206.993,50.835 206.654,51.413 206.151 C 51.841 205.779,52.102 205.260,52.102 204.781 C 52.102 204.263,52.328 203.862,52.791 203.558 C 53.395 203.163,53.480 202.909,53.480 201.516 C 53.480 200.124,53.566 199.869,54.170 199.474 C 54.678 199.141,54.859 198.780,54.859 198.096 C 54.859 197.411,55.039 197.051,55.548 196.717 C 56.057 196.384,56.237 196.023,56.237 195.339 C 56.237 194.655,56.417 194.294,56.926 193.961 C 57.518 193.573,57.615 193.302,57.615 192.047 C 57.615 190.844,57.738 190.471,58.305 189.938 C 58.706 189.561,58.994 188.983,58.994 188.554 C 58.994 188.149,59.242 187.594,59.545 187.319 C 59.965 186.939,60.096 186.470,60.096 185.353 C 60.096 184.092,60.193 183.822,60.786 183.434 C 61.258 183.125,61.475 182.732,61.475 182.186 C 61.475 181.679,61.726 181.170,62.164 180.789 C 62.606 180.405,62.853 179.900,62.853 179.383 C 62.853 178.852,63.088 178.392,63.542 178.035 C 64.121 177.579,64.232 177.261,64.232 176.045 C 64.232 174.856,64.355 174.480,64.921 173.949 C 65.320 173.574,65.610 172.994,65.610 172.571 C 65.610 172.147,65.900 171.567,66.299 171.192 C 66.867 170.659,66.988 170.286,66.988 169.079 C 66.988 167.912,67.101 167.543,67.540 167.269 C 67.878 167.057,68.091 166.626,68.091 166.151 C 68.091 165.679,68.360 165.127,68.780 164.738 C 69.180 164.367,69.469 163.794,69.469 163.371 C 69.469 162.938,69.749 162.400,70.159 162.044 C 70.727 161.550,70.848 161.195,70.848 160.028 C 70.848 158.860,70.969 158.505,71.537 158.012 C 71.984 157.623,72.226 157.124,72.226 156.590 C 72.226 156.017,72.435 155.630,72.915 155.316 C 73.513 154.924,73.604 154.661,73.604 153.342 C 73.604 152.073,73.719 151.715,74.294 151.182 C 74.727 150.780,74.983 150.243,74.983 149.735 C 74.983 149.177,75.196 148.786,75.672 148.475 C 76.152 148.160,76.361 147.774,76.361 147.200 C 76.361 146.718,76.590 146.181,76.912 145.904 C 77.335 145.543,77.464 145.091,77.464 143.976 C 77.464 142.765,77.580 142.417,78.153 141.920 C 78.581 141.547,78.842 141.028,78.842 140.549 C 78.842 140.031,79.068 139.630,79.531 139.327 C 80.135 138.932,80.221 138.677,80.221 137.285 C 80.221 135.892,80.306 135.638,80.910 135.242 C 81.419 134.909,81.599 134.548,81.599 133.864 C 81.599 133.180,81.779 132.819,82.288 132.486 C 82.797 132.152,82.977 131.792,82.977 131.107 C 82.977 130.423,83.158 130.062,83.666 129.729 C 84.258 129.341,84.356 129.071,84.356 127.816 C 84.356 126.613,84.478 126.239,85.045 125.706 C 85.464 125.313,85.734 124.754,85.734 124.282 C 85.734 123.804,85.946 123.373,86.285 123.161 C 86.733 122.882,86.837 122.519,86.837 121.236 C 86.837 119.853,86.923 119.598,87.526 119.203 C 87.998 118.893,88.215 118.500,88.215 117.954 C 88.215 117.447,88.466 116.939,88.904 116.558 C 89.346 116.174,89.593 115.669,89.593 115.152 C 89.593 114.620,89.828 114.161,90.283 113.803 C 90.864 113.346,90.972 113.031,90.972 111.785 C 90.972 110.539,91.079 110.224,91.661 109.767 C 92.116 109.409,92.350 108.950,92.350 108.416 C 92.350 107.911,92.608 107.366,93.039 106.961 C 93.606 106.428,93.728 106.054,93.728 104.851 C 93.728 103.596,93.826 103.326,94.418 102.938 C 94.926 102.605,95.107 102.244,95.107 101.563 C 95.107 100.922,95.275 100.550,95.658 100.345 C 96.020 100.151,96.210 99.767,96.210 99.230 C 96.210 98.700,96.453 98.200,96.899 97.812 C 97.472 97.314,97.588 96.967,97.588 95.753 C 97.588 94.499,97.686 94.229,98.277 93.841 C 98.783 93.510,98.966 93.146,98.966 92.476 C 98.966 91.831,99.168 91.404,99.655 91.021 C 100.124 90.652,100.345 90.207,100.345 89.629 C 100.345 89.027,100.545 88.648,101.034 88.328 C 101.637 87.932,101.723 87.678,101.723 86.285 C 101.723 84.893,101.809 84.638,102.412 84.243 C 102.892 83.928,103.101 83.542,103.101 82.969 C 103.101 82.435,103.343 81.936,103.790 81.547 C 104.372 81.042,104.480 80.707,104.480 79.410 C 104.480 78.171,104.587 77.805,105.031 77.528 C 105.381 77.309,105.582 76.885,105.582 76.365 C 105.582 75.796,105.793 75.409,106.272 75.095 C 106.747 74.783,106.961 74.393,106.961 73.835 C 106.961 73.327,107.217 72.790,107.650 72.388 C 108.225 71.855,108.339 71.497,108.339 70.228 C 108.339 68.908,108.431 68.646,109.028 68.254 C 109.508 67.939,109.717 67.553,109.717 66.980 C 109.717 66.446,109.959 65.947,110.407 65.558 C 110.975 65.064,111.096 64.710,111.096 63.541 C 111.096 62.384,111.223 62.003,111.785 61.475 C 112.204 61.081,112.474 60.523,112.474 60.051 C 112.474 59.573,112.686 59.142,113.025 58.930 C 113.392 58.701,113.577 58.287,113.577 57.693 C 113.577 57.046,113.766 56.677,114.266 56.350 C 114.860 55.960,114.955 55.693,114.955 54.412 C 114.955 53.170,115.069 52.827,115.644 52.326 C 116.055 51.969,116.334 51.432,116.334 50.998 C 116.334 50.582,116.621 49.998,117.003 49.640 C 118.559 48.178,120.160 48.243,82.452 48.243 C 55.655 48.243,47.449 48.320,47.195 48.573 M277.174 48.541 C 277.073 48.705,277.314 49.177,277.709 49.590 C 278.282 50.187,278.429 50.612,278.429 51.672 C 278.429 52.738,278.566 53.131,279.118 53.642 C 279.559 54.051,279.807 54.580,279.807 55.112 C 279.807 55.660,279.994 56.042,280.358 56.237 C 280.720 56.431,280.910 56.814,280.910 57.351 C 280.910 57.881,281.153 58.382,281.599 58.770 C 282.173 59.269,282.288 59.615,282.288 60.837 C 282.288 62.060,282.403 62.406,282.977 62.905 C 283.388 63.262,283.666 63.799,283.666 64.233 C 283.666 64.655,283.957 65.236,284.356 65.610 C 284.923 66.143,285.045 66.516,285.045 67.719 C 285.045 68.974,285.142 69.245,285.734 69.633 C 286.217 69.949,286.423 70.333,286.423 70.917 C 286.423 71.451,286.670 71.978,287.112 72.388 C 287.666 72.901,287.802 73.291,287.802 74.370 C 287.802 75.447,287.938 75.842,288.491 76.361 C 288.892 76.738,289.180 77.316,289.180 77.745 C 289.180 78.150,289.428 78.706,289.731 78.980 C 290.034 79.254,290.283 79.810,290.283 80.215 C 290.283 80.644,290.570 81.222,290.972 81.599 C 291.534 82.127,291.661 82.508,291.661 83.665 C 291.661 84.834,291.782 85.188,292.350 85.682 C 292.788 86.063,293.039 86.572,293.039 87.079 C 293.039 87.625,293.256 88.018,293.728 88.328 C 294.325 88.718,294.418 88.982,294.418 90.291 C 294.418 91.560,294.528 91.899,295.107 92.402 C 295.517 92.759,295.796 93.296,295.796 93.730 C 295.796 94.152,296.087 94.733,296.485 95.107 C 296.904 95.500,297.174 96.059,297.174 96.531 C 297.174 97.009,297.386 97.440,297.726 97.652 C 298.173 97.931,298.277 98.295,298.277 99.578 C 298.277 100.960,298.364 101.216,298.966 101.610 C 299.475 101.944,299.655 102.304,299.655 102.989 C 299.655 103.673,299.836 104.034,300.345 104.367 C 300.948 104.762,301.034 105.017,301.034 106.409 C 301.034 107.802,301.120 108.056,301.723 108.452 C 302.187 108.755,302.412 109.156,302.412 109.676 C 302.412 110.143,302.684 110.704,303.101 111.096 C 303.500 111.471,303.790 112.051,303.790 112.474 C 303.790 112.897,304.081 113.478,304.480 113.853 C 305.035 114.374,305.169 114.765,305.169 115.868 C 305.169 116.972,305.301 117.358,305.858 117.874 C 306.299 118.283,306.547 118.811,306.547 119.343 C 306.547 119.891,306.735 120.274,307.099 120.469 C 307.547 120.709,307.650 121.046,307.650 122.272 C 307.650 123.537,307.761 123.877,308.339 124.380 C 308.750 124.736,309.028 125.274,309.028 125.708 C 309.028 126.129,309.319 126.711,309.717 127.085 C 310.116 127.460,310.407 128.040,310.407 128.463 C 310.407 128.886,310.697 129.467,311.096 129.841 C 311.663 130.374,311.785 130.748,311.785 131.951 C 311.785 133.206,311.882 133.476,312.474 133.864 C 312.957 134.181,313.163 134.564,313.163 135.148 C 313.163 135.682,313.410 136.210,313.853 136.620 C 314.406 137.133,314.542 137.523,314.542 138.602 C 314.542 139.678,314.679 140.074,315.231 140.593 C 315.693 141.026,315.920 141.537,315.920 142.138 C 315.920 142.794,316.069 143.084,316.471 143.212 C 316.940 143.360,317.023 143.629,317.023 145.002 C 317.023 146.397,317.117 146.692,317.712 147.160 C 318.181 147.528,318.401 147.973,318.401 148.552 C 318.401 149.154,318.602 149.533,319.090 149.853 C 319.593 150.182,319.779 150.549,319.779 151.206 C 319.779 151.863,319.966 152.230,320.469 152.559 C 321.060 152.947,321.158 153.217,321.158 154.472 C 321.158 155.675,321.280 156.049,321.847 156.582 C 322.246 156.957,322.536 157.537,322.536 157.960 C 322.536 158.383,322.826 158.964,323.225 159.338 C 323.787 159.866,323.915 160.248,323.915 161.404 C 323.915 162.574,324.036 162.928,324.604 163.422 C 325.050 163.810,325.293 164.310,325.293 164.840 C 325.293 165.377,325.483 165.761,325.844 165.955 C 326.227 166.159,326.396 166.532,326.396 167.173 C 326.396 167.854,326.577 168.215,327.085 168.548 C 327.681 168.939,327.774 169.203,327.774 170.511 C 327.774 171.780,327.885 172.119,328.463 172.622 C 328.874 172.979,329.152 173.516,329.152 173.951 C 329.152 174.372,329.443 174.953,329.841 175.327 C 330.409 175.860,330.531 176.234,330.531 177.437 C 330.531 178.692,330.628 178.962,331.220 179.350 C 331.703 179.667,331.909 180.050,331.909 180.634 C 331.909 181.168,332.156 181.696,332.598 182.105 C 333.031 182.507,333.287 183.044,333.287 183.553 C 333.287 184.111,333.501 184.501,333.977 184.813 C 334.579 185.207,334.666 185.463,334.666 186.846 C 334.666 188.128,334.770 188.492,335.217 188.771 C 335.556 188.983,335.768 189.414,335.768 189.892 C 335.768 190.364,336.039 190.923,336.458 191.316 C 337.020 191.844,337.147 192.226,337.147 193.382 C 337.147 194.552,337.268 194.906,337.836 195.400 C 338.283 195.789,338.525 196.288,338.525 196.822 C 338.525 197.395,338.734 197.781,339.214 198.096 C 339.808 198.485,339.904 198.752,339.904 200.034 C 339.904 201.275,340.017 201.618,340.593 202.119 C 341.034 202.503,341.282 203.008,341.282 203.525 C 341.282 204.057,341.516 204.516,341.971 204.874 C 342.425 205.231,342.660 205.690,342.660 206.220 C 342.660 206.726,342.865 207.153,343.212 207.369 C 343.656 207.647,343.763 208.012,343.763 209.252 C 343.763 210.549,343.871 210.884,344.452 211.389 C 344.899 211.778,345.141 212.277,345.141 212.811 C 345.141 213.384,345.350 213.770,345.830 214.085 C 346.437 214.482,346.520 214.732,346.520 216.167 C 346.520 217.841,347.086 218.637,347.646 217.752 C 347.917 217.324,348.001 69.507,347.731 68.803 C 347.625 68.528,347.230 68.367,346.662 68.367 C 345.604 68.367,344.980 67.811,345.479 67.313 C 345.657 67.134,346.125 66.988,346.520 66.988 C 347.888 66.988,347.898 66.924,347.898 57.615 C 347.898 51.208,347.811 48.817,347.567 48.573 C 347.116 48.122,277.453 48.090,277.174 48.541 " stroke="none" fill="#26b450" fill-rule="evenodd"></path><path id="path3" d="M196.735 63.082 C 196.484 63.359,196.278 63.778,196.278 64.013 C 196.278 64.248,196.108 64.581,195.899 64.754 C 195.691 64.927,195.363 65.656,195.170 66.373 C 194.978 67.091,194.604 68.050,194.339 68.504 C 194.074 68.959,193.768 69.766,193.659 70.296 C 193.550 70.827,193.300 71.447,193.103 71.675 C 192.907 71.902,192.598 72.643,192.418 73.321 C 192.237 73.999,191.912 74.805,191.696 75.113 C 191.480 75.420,191.170 76.164,191.007 76.765 C 190.845 77.366,190.476 78.158,190.187 78.525 C 189.898 78.892,189.662 79.590,189.662 80.077 C 189.662 80.596,189.446 81.158,189.139 81.435 C 188.852 81.696,188.482 82.442,188.318 83.094 C 188.154 83.745,187.844 84.424,187.629 84.603 C 187.415 84.781,187.154 85.387,187.049 85.951 C 186.945 86.514,186.635 87.347,186.361 87.802 C 186.087 88.256,185.771 89.063,185.659 89.593 C 185.547 90.124,185.227 90.850,184.947 91.206 C 184.668 91.563,184.354 92.307,184.251 92.860 C 184.147 93.414,183.845 94.176,183.580 94.555 C 183.315 94.935,183.014 95.734,182.911 96.333 C 182.809 96.931,182.501 97.705,182.228 98.053 C 181.954 98.401,181.644 99.152,181.538 99.722 C 181.432 100.292,181.165 100.960,180.944 101.206 C 180.722 101.453,180.470 102.135,180.382 102.723 C 180.294 103.310,180.072 103.915,179.888 104.066 C 179.397 104.470,178.911 105.468,178.911 106.073 C 178.911 106.363,178.663 106.887,178.360 107.236 C 178.057 107.586,177.808 107.977,177.808 108.106 C 177.808 108.775,176.643 109.442,175.475 109.442 C 174.080 109.442,173.326 110.207,173.964 110.976 C 174.482 111.600,185.857 111.554,186.485 110.925 C 187.186 110.225,186.326 109.442,184.857 109.442 C 182.779 109.442,181.605 107.328,182.877 105.880 C 183.088 105.640,183.399 104.780,183.570 103.967 C 183.741 103.155,184.127 102.177,184.428 101.794 C 184.729 101.411,184.976 100.751,184.976 100.327 C 184.976 99.904,185.172 99.360,185.413 99.120 C 185.653 98.880,185.969 98.251,186.115 97.722 L 186.380 96.761 196.004 96.761 L 205.628 96.761 206.467 98.480 C 206.928 99.425,207.305 100.399,207.305 100.643 C 207.305 100.887,207.553 101.373,207.857 101.723 C 208.160 102.073,208.412 102.681,208.417 103.075 C 208.421 103.468,208.730 104.411,209.103 105.169 C 210.486 107.980,209.795 109.442,207.082 109.442 C 205.177 109.442,204.238 109.955,204.716 110.735 C 205.075 111.321,221.421 111.656,222.461 111.099 C 222.811 110.912,223.042 110.911,223.156 111.095 C 223.477 111.614,237.507 111.454,238.036 110.925 C 238.725 110.237,237.931 109.541,236.274 109.382 C 235.542 109.311,234.772 109.106,234.563 108.925 C 234.354 108.744,233.935 108.424,233.632 108.214 C 233.097 107.844,232.567 76.910,233.073 75.592 C 233.240 75.157,235.148 77.028,235.148 77.626 C 235.148 77.824,235.454 78.317,235.829 78.721 C 236.203 79.125,236.583 79.689,236.674 79.976 C 236.765 80.262,236.948 80.496,237.082 80.496 C 237.334 80.496,239.283 83.292,239.283 83.653 C 239.283 83.766,239.624 84.204,240.041 84.625 C 241.045 85.639,241.524 86.242,242.033 87.127 C 242.988 88.789,243.764 89.869,244.004 89.869 C 244.144 89.869,244.384 90.197,244.536 90.598 C 244.689 90.999,245.212 91.836,245.698 92.459 C 246.185 93.081,246.709 93.758,246.862 93.961 C 247.015 94.165,247.419 94.636,247.760 95.008 C 248.101 95.379,248.380 95.785,248.380 95.908 C 248.380 96.032,248.753 96.602,249.207 97.174 C 249.662 97.747,250.034 98.339,250.034 98.490 C 250.034 98.641,250.314 99.052,250.655 99.402 C 252.120 100.907,252.465 101.342,252.630 101.893 C 252.726 102.214,253.050 102.699,253.350 102.970 C 253.649 103.241,253.894 103.626,253.894 103.827 C 253.894 104.027,254.204 104.394,254.583 104.643 C 254.962 104.891,255.272 105.248,255.272 105.436 C 255.272 105.624,255.582 106.112,255.961 106.521 C 256.340 106.930,256.651 107.409,256.651 107.585 C 256.651 107.762,256.890 108.159,257.182 108.467 C 258.788 110.161,259.142 110.626,259.298 111.250 C 259.614 112.509,261.558 113.245,262.385 112.419 C 262.636 112.167,262.715 106.962,262.715 90.675 C 262.715 69.967,262.777 67.540,263.307 67.540 C 263.442 67.540,264.031 67.238,264.615 66.870 C 265.198 66.501,266.132 66.114,266.690 66.009 C 268.157 65.734,268.674 65.152,268.057 64.470 C 267.613 63.979,267.164 63.951,260.808 64.020 L 254.032 64.094 254.032 64.903 C 254.032 65.600,254.166 65.745,254.997 65.947 C 256.444 66.299,258.322 67.310,258.754 67.969 C 259.071 68.452,259.124 71.153,259.065 83.691 C 259.008 95.912,258.929 98.682,258.656 98.070 C 258.470 97.653,258.143 97.312,257.928 97.312 C 257.713 97.312,257.465 97.033,257.377 96.692 C 257.288 96.351,256.906 95.715,256.528 95.280 C 256.149 94.844,255.765 94.255,255.675 93.970 C 255.585 93.686,255.391 93.453,255.245 93.453 C 255.099 93.453,254.900 93.236,254.804 92.970 C 254.707 92.705,254.308 92.096,253.916 91.617 C 253.525 91.137,252.895 90.284,252.516 89.721 C 252.136 89.158,251.547 88.420,251.206 88.080 C 250.865 87.740,250.586 87.331,250.586 87.171 C 250.586 87.010,250.307 86.527,249.966 86.098 C 249.624 85.668,249.187 85.069,248.994 84.767 C 248.801 84.465,248.386 83.815,248.071 83.322 C 247.756 82.829,247.381 82.426,247.236 82.426 C 247.092 82.426,246.790 81.986,246.566 81.449 C 246.341 80.912,245.984 80.406,245.772 80.324 C 245.560 80.243,245.260 79.814,245.106 79.371 C 244.952 78.929,244.689 78.567,244.521 78.567 C 244.354 78.567,244.035 78.163,243.812 77.671 C 243.589 77.178,242.975 76.216,242.447 75.534 C 241.920 74.852,241.344 74.014,241.168 73.673 C 240.993 73.332,240.748 73.053,240.624 73.053 C 240.501 73.053,240.195 72.650,239.944 72.157 C 239.484 71.255,239.318 71.033,238.110 69.712 C 237.747 69.314,237.293 68.610,237.101 68.147 C 236.909 67.683,236.515 67.090,236.226 66.828 C 235.936 66.566,235.700 66.229,235.700 66.079 C 235.700 65.929,235.296 65.391,234.804 64.884 L 233.908 63.962 228.932 63.959 C 223.803 63.956,223.294 64.058,223.294 65.095 C 223.294 65.598,223.593 65.738,225.324 66.045 C 225.910 66.149,226.871 66.550,227.460 66.936 L 228.532 67.638 228.532 87.706 L 228.532 107.775 227.774 108.257 C 227.357 108.523,226.944 108.839,226.857 108.960 C 226.770 109.081,226.026 109.257,225.203 109.349 C 224.381 109.442,223.477 109.636,223.196 109.781 C 222.856 109.956,222.582 109.943,222.383 109.743 C 222.217 109.577,221.773 109.442,221.395 109.442 C 220.359 109.442,218.896 108.335,218.296 107.099 C 218.003 106.492,217.582 105.686,217.362 105.307 C 217.142 104.928,216.960 104.343,216.958 104.008 C 216.956 103.673,216.723 103.177,216.442 102.905 C 216.160 102.634,215.855 101.932,215.764 101.344 C 215.673 100.757,215.407 100.064,215.172 99.805 C 214.938 99.546,214.559 98.706,214.332 97.938 C 214.104 97.170,213.732 96.471,213.506 96.385 C 213.249 96.286,213.094 95.862,213.094 95.253 C 213.094 94.657,212.887 94.072,212.558 93.744 C 212.264 93.449,211.940 92.766,211.838 92.225 C 211.737 91.685,211.427 90.955,211.151 90.603 C 210.874 90.251,210.568 89.601,210.470 89.158 C 210.190 87.886,209.741 86.837,209.477 86.837 C 209.344 86.837,209.235 86.548,209.235 86.194 C 209.235 85.841,208.923 84.941,208.543 84.196 C 208.162 83.450,207.716 82.348,207.552 81.748 C 207.387 81.148,207.094 80.527,206.899 80.370 C 206.704 80.212,206.473 79.600,206.385 79.009 C 206.297 78.419,205.988 77.675,205.699 77.355 C 205.410 77.036,205.096 76.361,205.002 75.856 C 204.907 75.351,204.580 74.621,204.275 74.234 C 203.971 73.847,203.721 73.206,203.721 72.809 C 203.720 72.413,203.492 71.715,203.213 71.258 C 202.935 70.801,202.491 69.778,202.227 68.984 C 201.963 68.189,201.648 67.540,201.527 67.540 C 201.405 67.540,201.165 66.981,200.994 66.299 C 200.822 65.617,200.569 65.059,200.431 65.059 C 200.293 65.059,200.029 64.593,199.844 64.025 C 199.339 62.477,197.725 61.988,196.735 63.082 M125.864 64.389 C 125.086 65.167,125.785 65.787,127.710 66.027 C 128.711 66.152,129.460 66.452,130.122 66.992 L 131.082 67.776 131.158 86.967 C 131.207 99.339,131.135 106.528,130.954 107.198 C 130.627 108.415,128.945 109.442,127.281 109.442 C 126.038 109.442,125.314 110.088,125.717 110.839 C 126.152 111.653,154.192 111.672,155.235 110.859 C 155.597 110.577,156.509 110.255,157.262 110.144 C 158.071 110.024,158.953 109.670,159.419 109.278 C 159.853 108.913,160.396 108.615,160.625 108.615 C 161.179 108.615,162.297 107.739,164.379 105.674 C 166.994 103.079,167.524 102.466,167.731 101.792 C 167.836 101.451,168.027 101.172,168.156 101.172 C 168.285 101.172,168.614 100.586,168.887 99.871 C 169.160 99.155,169.605 98.136,169.874 97.607 C 170.144 97.077,170.365 96.153,170.365 95.553 C 170.365 94.900,170.559 94.246,170.848 93.928 C 171.552 93.149,171.580 80.742,170.880 79.669 C 170.633 79.290,170.356 78.478,170.266 77.864 C 170.084 76.636,168.655 73.579,168.014 73.046 C 167.791 72.861,167.609 72.552,167.609 72.358 C 167.609 71.597,164.934 68.859,163.423 68.075 C 162.865 67.785,162.329 67.420,162.233 67.264 C 162.136 67.108,161.663 66.792,161.180 66.563 C 160.698 66.334,159.993 65.966,159.614 65.744 C 159.235 65.523,158.552 65.341,158.096 65.338 C 157.640 65.336,156.684 65.024,155.972 64.645 L 154.677 63.956 140.487 63.956 C 127.955 63.956,126.247 64.006,125.864 64.389 M149.451 67.912 C 149.831 68.161,150.918 68.446,151.867 68.545 C 152.816 68.644,153.766 68.898,153.976 69.109 C 154.187 69.320,154.767 69.631,155.264 69.802 C 156.751 70.310,159.948 73.037,160.279 74.078 C 160.376 74.384,160.700 74.856,160.999 75.127 C 161.299 75.398,161.544 75.884,161.544 76.208 C 161.544 76.531,161.805 77.287,162.124 77.888 C 163.298 80.097,163.491 94.634,162.368 96.236 C 162.092 96.629,161.776 97.560,161.666 98.303 C 161.535 99.184,161.239 99.867,160.815 100.263 C 160.458 100.596,160.165 101.062,160.165 101.296 C 160.165 101.531,160.037 101.723,159.880 101.723 C 159.724 101.723,159.358 102.126,159.067 102.619 C 158.565 103.469,156.042 105.582,155.528 105.582 C 155.396 105.582,155.020 105.815,154.693 106.098 C 154.365 106.382,153.505 106.693,152.780 106.789 C 152.055 106.885,151.156 107.180,150.783 107.445 C 149.768 108.163,141.739 108.162,140.945 107.443 C 140.651 107.178,140.271 106.961,140.098 106.961 C 139.273 106.961,139.214 105.617,139.214 86.740 C 139.214 71.685,139.288 67.552,139.559 67.427 C 140.393 67.044,148.751 67.454,149.451 67.912 M197.096 76.274 C 197.370 76.622,197.673 77.326,197.769 77.837 C 197.865 78.348,198.189 78.989,198.489 79.261 C 198.817 79.558,199.035 80.108,199.035 80.640 C 199.035 81.126,199.276 81.830,199.569 82.204 C 199.863 82.577,200.191 83.245,200.298 83.688 C 200.405 84.131,200.785 85.051,201.142 85.732 C 201.499 86.413,201.792 87.233,201.792 87.555 C 201.792 87.877,202.035 88.450,202.333 88.829 C 202.631 89.208,202.992 90.039,203.135 90.678 C 203.279 91.316,203.620 92.085,203.892 92.387 C 204.776 93.362,203.986 93.462,195.956 93.387 C 187.839 93.310,187.746 93.297,188.369 92.305 C 188.591 91.951,188.853 91.208,188.949 90.655 C 189.046 90.102,189.354 89.358,189.634 89.001 C 189.913 88.645,190.234 87.919,190.346 87.388 C 190.459 86.857,190.741 86.207,190.974 85.943 C 191.207 85.679,191.495 84.850,191.613 84.102 C 191.731 83.353,192.068 82.501,192.362 82.208 C 192.655 81.914,192.984 81.199,193.093 80.618 C 193.202 80.036,193.529 79.258,193.820 78.889 C 194.111 78.519,194.349 77.880,194.349 77.469 C 194.349 77.058,194.597 76.498,194.900 76.223 C 195.203 75.949,195.451 75.628,195.451 75.509 C 195.451 75.391,195.592 74.945,195.763 74.518 L 196.075 73.742 196.336 74.691 C 196.480 75.213,196.822 75.925,197.096 76.274 M204.824 136.371 C 204.445 136.446,203.928 136.693,203.674 136.920 C 203.420 137.146,202.676 137.399,202.020 137.481 C 201.364 137.564,200.579 137.848,200.276 138.113 C 199.972 138.378,199.290 138.734,198.759 138.904 C 197.144 139.421,192.419 143.860,192.419 144.861 C 192.419 145.038,192.121 145.463,191.756 145.806 C 191.392 146.148,191.019 146.825,190.928 147.310 C 190.837 147.794,190.515 148.403,190.212 148.662 C 189.879 148.947,189.662 149.475,189.662 149.999 C 189.662 150.476,189.383 151.314,189.042 151.863 C 188.434 152.840,188.422 153.028,188.422 161.268 C 188.422 169.478,188.436 169.702,189.042 170.775 C 189.383 171.379,189.662 172.216,189.662 172.635 C 189.662 173.055,189.914 173.650,190.222 173.958 C 190.530 174.266,190.854 174.877,190.942 175.317 C 191.030 175.756,191.398 176.394,191.760 176.734 C 192.123 177.075,192.419 177.519,192.419 177.721 C 192.419 177.924,192.667 178.302,192.970 178.562 C 193.274 178.821,193.522 179.179,193.522 179.357 C 193.522 179.535,193.987 180.075,194.555 180.558 C 195.124 181.040,196.084 181.859,196.690 182.379 C 197.295 182.898,198.225 183.461,198.757 183.629 C 199.289 183.797,199.875 184.124,200.059 184.357 C 200.244 184.589,201.021 184.879,201.786 185.000 C 202.551 185.120,203.366 185.408,203.596 185.638 C 204.558 186.600,216.406 186.662,217.456 185.711 C 217.763 185.432,218.551 185.137,219.207 185.055 C 219.863 184.972,220.648 184.682,220.951 184.410 C 221.254 184.137,221.829 183.833,222.228 183.734 C 222.900 183.567,227.705 179.216,227.705 178.774 C 227.705 178.666,228.015 178.333,228.394 178.035 C 228.773 177.737,229.083 177.260,229.083 176.976 C 229.083 176.691,229.380 176.138,229.744 175.746 C 230.107 175.354,230.482 174.616,230.578 174.106 C 230.674 173.595,230.924 173.035,231.134 172.860 C 231.345 172.686,231.604 171.898,231.711 171.109 C 231.818 170.321,232.158 168.870,232.466 167.884 C 233.296 165.229,233.289 157.620,232.454 154.652 C 232.135 153.515,231.790 151.999,231.689 151.284 C 231.587 150.569,231.335 149.843,231.128 149.671 C 230.921 149.499,230.674 148.945,230.580 148.440 C 230.485 147.934,230.176 147.311,229.893 147.056 C 229.611 146.800,229.241 146.171,229.072 145.657 C 228.902 145.144,228.525 144.596,228.234 144.440 C 227.943 144.284,227.705 144.034,227.705 143.883 C 227.705 143.659,225.995 141.908,223.570 139.650 C 223.343 139.438,222.784 139.105,222.329 138.910 C 221.875 138.716,221.290 138.379,221.030 138.162 C 220.770 137.946,219.973 137.659,219.259 137.526 C 218.545 137.393,217.721 137.067,217.429 136.802 C 216.900 136.322,206.803 135.977,204.824 136.371 M256.237 136.437 C 255.782 136.561,255.038 136.863,254.583 137.109 C 254.128 137.356,253.370 137.558,252.897 137.559 C 252.425 137.560,251.733 137.801,251.359 138.095 C 250.986 138.388,250.361 138.709,249.970 138.807 C 249.579 138.905,248.978 139.285,248.634 139.651 C 248.290 140.017,247.890 140.317,247.745 140.317 C 247.320 140.317,243.440 144.224,243.244 144.848 C 243.146 145.161,242.773 145.690,242.415 146.024 C 242.057 146.358,241.764 146.928,241.764 147.291 C 241.764 147.654,241.531 148.161,241.246 148.419 C 240.961 148.677,240.651 149.372,240.556 149.964 C 240.461 150.556,240.114 151.497,239.785 152.056 C 238.658 153.966,238.767 168.748,239.917 170.034 C 240.148 170.292,240.424 171.094,240.531 171.816 C 240.638 172.538,240.943 173.406,241.209 173.745 C 241.475 174.085,241.774 174.735,241.874 175.190 C 241.973 175.644,242.610 176.620,243.288 177.359 C 243.966 178.097,244.522 178.779,244.524 178.875 C 244.534 179.454,249.553 183.537,250.563 183.786 C 250.954 183.883,251.437 184.190,251.635 184.469 C 251.848 184.769,252.334 184.976,252.824 184.976 C 253.280 184.976,254.325 185.294,255.147 185.683 L 256.641 186.390 263.331 186.303 C 269.024 186.229,270.159 186.145,270.951 185.738 C 271.462 185.475,272.702 185.188,273.707 185.101 C 276.337 184.872,276.542 184.808,277.533 183.899 L 278.429 183.077 278.449 176.652 C 278.479 167.163,278.461 167.210,282.399 166.378 C 283.930 166.054,284.531 165.423,283.961 164.737 C 283.439 164.107,265.728 164.073,265.207 164.701 C 264.502 165.551,264.981 166.078,266.677 166.315 C 267.564 166.439,268.430 166.653,268.603 166.792 C 271.048 168.747,271.294 169.649,271.199 176.279 L 271.123 181.484 270.296 181.732 C 269.841 181.867,268.933 182.232,268.277 182.542 C 266.765 183.257,261.671 183.195,260.510 182.448 C 260.131 182.205,259.325 181.927,258.718 181.832 C 256.482 181.481,250.586 177.213,250.586 175.946 C 250.586 175.816,250.276 175.290,249.897 174.776 C 249.518 174.262,249.207 173.635,249.207 173.381 C 249.207 173.128,248.943 172.584,248.620 172.174 C 248.186 171.622,247.969 170.800,247.790 169.035 C 247.658 167.720,247.397 166.210,247.212 165.679 C 246.751 164.358,246.769 158.126,247.239 156.779 C 247.439 156.206,247.698 154.684,247.815 153.397 C 247.951 151.906,248.186 150.884,248.464 150.577 C 248.704 150.312,249.022 149.552,249.171 148.888 C 249.320 148.223,249.550 147.605,249.682 147.513 C 249.814 147.422,250.208 146.850,250.558 146.244 C 250.908 145.637,251.367 145.042,251.579 144.921 C 251.791 144.800,251.964 144.578,251.964 144.429 C 251.964 143.987,253.758 142.326,254.473 142.106 C 254.837 141.994,255.356 141.670,255.628 141.386 C 255.899 141.101,256.471 140.868,256.900 140.868 C 257.328 140.868,258.034 140.589,258.467 140.248 C 259.638 139.328,266.122 139.312,267.828 140.225 C 268.442 140.554,269.403 140.909,269.965 141.014 C 270.526 141.119,270.986 141.312,270.986 141.443 C 270.986 141.574,271.329 141.859,271.748 142.076 C 272.543 142.486,273.191 144.156,273.191 145.792 C 273.191 147.007,273.943 147.484,275.858 147.484 C 278.296 147.484,278.429 147.260,278.429 143.117 L 278.429 139.758 277.500 138.744 C 276.633 137.798,276.432 137.718,274.443 137.528 C 272.990 137.389,272.137 137.165,271.759 136.822 C 271.150 136.271,258.040 135.946,256.237 136.437 M111.083 137.989 C 110.474 138.723,111.111 139.324,112.779 139.586 C 113.597 139.715,114.452 139.976,114.680 140.165 C 114.907 140.354,115.301 140.583,115.556 140.673 C 116.318 140.942,116.364 142.311,116.278 162.324 C 116.197 181.078,116.185 181.444,115.644 181.819 C 115.341 182.029,114.939 182.333,114.750 182.495 C 114.561 182.657,113.706 182.879,112.850 182.987 C 111.114 183.207,110.452 183.787,111.077 184.539 C 111.678 185.264,135.552 185.194,136.489 184.464 C 136.851 184.183,137.629 183.864,138.219 183.756 C 140.105 183.408,142.642 181.248,144.070 178.773 C 145.155 176.893,145.303 169.624,144.284 168.247 C 143.964 167.814,143.620 167.199,143.518 166.879 C 143.080 165.499,138.971 161.915,137.514 161.643 C 135.846 161.331,134.521 159.614,135.948 159.614 C 137.243 159.614,141.282 155.668,142.518 153.196 C 143.714 150.803,143.763 145.874,142.613 143.579 C 141.660 141.675,138.812 138.944,137.778 138.941 C 137.360 138.940,136.776 138.665,136.453 138.318 L 135.875 137.698 123.664 137.621 C 112.704 137.552,111.415 137.590,111.083 137.989 M149.946 137.997 C 149.344 138.723,149.990 139.322,151.705 139.628 C 152.555 139.779,153.404 140.059,153.593 140.248 C 153.781 140.438,154.092 140.593,154.284 140.593 C 155.306 140.593,155.341 141.276,155.341 161.268 C 155.341 181.056,155.298 181.943,154.341 181.943 C 154.181 181.943,153.734 182.192,153.349 182.495 C 152.898 182.849,152.230 183.046,151.478 183.046 C 150.162 183.046,149.550 183.551,149.824 184.411 C 150.002 184.972,150.114 184.976,166.790 184.976 C 186.386 184.976,184.149 185.527,184.149 180.703 C 184.149 176.625,184.049 176.430,181.965 176.430 C 180.127 176.430,179.647 176.862,179.324 178.802 C 179.040 180.509,178.636 181.327,177.993 181.500 C 177.225 181.706,165.177 181.710,164.412 181.505 C 163.283 181.202,163.198 179.718,163.198 160.438 C 163.198 141.827,163.246 140.948,164.285 140.677 C 164.576 140.601,164.880 140.365,164.962 140.152 C 165.050 139.923,165.501 139.766,166.066 139.766 C 168.051 139.766,169.287 138.900,168.517 138.049 C 167.877 137.342,150.530 137.293,149.946 137.997 M214.088 140.290 C 214.492 140.608,215.151 140.868,215.553 140.868 C 216.257 140.868,216.873 141.252,218.760 142.867 C 219.247 143.284,219.772 143.625,219.927 143.625 C 220.081 143.625,220.346 144.020,220.514 144.503 C 220.682 144.986,221.001 145.581,221.222 145.826 C 221.980 146.663,223.016 148.887,223.188 150.047 C 223.282 150.684,223.542 151.497,223.764 151.853 C 224.941 153.734,224.946 168.914,223.771 170.728 C 223.556 171.059,223.299 171.852,223.198 172.490 C 223.015 173.654,221.972 175.882,221.222 176.711 C 221.001 176.955,220.682 177.550,220.514 178.033 C 220.346 178.516,220.107 178.911,219.983 178.911 C 219.859 178.911,219.468 179.158,219.114 179.460 C 217.308 181.000,216.309 181.624,215.370 181.798 C 214.801 181.904,214.105 182.197,213.823 182.449 C 212.993 183.193,208.079 183.071,206.627 182.270 C 206.026 181.939,205.270 181.668,204.947 181.668 C 204.625 181.668,204.022 181.389,203.607 181.048 C 202.237 179.918,199.586 177.133,199.586 176.822 C 199.586 176.653,199.341 176.293,199.041 176.021 C 198.740 175.750,198.415 175.079,198.318 174.531 C 198.221 173.984,197.919 173.163,197.649 172.708 C 197.378 172.254,197.066 171.013,196.955 169.952 C 196.844 168.890,196.585 167.541,196.378 166.954 C 196.119 166.216,196.003 164.457,196.003 161.268 C 196.003 158.079,196.119 156.321,196.378 155.583 C 196.585 154.995,196.846 153.646,196.959 152.586 C 197.075 151.496,197.374 150.358,197.648 149.967 C 197.914 149.587,198.214 148.824,198.315 148.271 C 198.416 147.717,198.743 146.953,199.042 146.573 C 199.342 146.193,199.586 145.749,199.586 145.587 C 199.586 145.424,199.897 145.089,200.276 144.840 C 200.655 144.592,200.965 144.263,200.965 144.108 C 200.965 143.694,202.870 141.971,203.328 141.971 C 203.544 141.971,203.722 141.799,203.722 141.588 C 203.722 141.365,204.148 141.125,204.746 141.013 C 205.309 140.908,206.147 140.615,206.607 140.362 C 208.514 139.316,212.797 139.275,214.088 140.290 M129.877 141.511 C 130.236 141.744,131.089 142.079,131.771 142.254 C 133.519 142.704,134.593 144.106,135.216 146.751 C 135.703 148.822,135.695 149.111,135.055 152.584 C 134.640 154.835,132.316 157.684,130.894 157.684 C 130.508 157.684,129.876 157.932,129.491 158.236 C 128.913 158.690,128.372 158.787,126.421 158.787 L 124.052 158.787 124.052 149.986 C 124.052 141.842,124.088 141.174,124.535 141.041 C 125.491 140.756,129.218 141.084,129.877 141.511 M128.298 162.899 C 128.499 163.066,129.389 163.337,130.276 163.501 C 131.233 163.678,132.209 164.069,132.678 164.463 C 133.112 164.829,133.573 165.127,133.702 165.127 C 134.144 165.127,135.829 166.918,136.037 167.609 C 136.151 167.988,136.501 168.721,136.815 169.238 C 138.703 172.354,136.373 179.471,133.150 180.435 C 132.771 180.548,132.165 180.872,131.803 181.154 C 130.038 182.533,125.368 181.739,124.502 179.913 C 123.911 178.668,123.816 162.799,124.397 162.537 C 124.943 162.290,127.894 162.564,128.298 162.899 " stroke="none" fill="#a46ccc" fill-rule="evenodd"></path><path id="path4" d="M0.000 138.525 L 0.000 275.672 200.000 275.672 L 400.000 275.672 400.000 138.525 L 400.000 1.378 200.000 1.378 L 0.000 1.378 0.000 138.525 M393.317 22.638 C 393.376 34.599,393.323 37.199,393.014 37.455 C 392.736 37.686,346.846 37.785,216.512 37.836 L 40.386 37.905 40.317 136.980 C 40.266 209.994,40.329 236.154,40.557 236.429 C 40.810 236.734,43.337 236.802,54.286 236.802 C 64.355 236.802,67.788 236.885,68.036 237.133 C 68.386 237.484,68.544 269.101,68.199 269.998 C 67.979 270.573,6.142 270.677,5.569 270.103 C 5.086 269.621,5.086 8.808,5.569 8.325 C 5.826 8.068,49.166 8.010,199.573 8.063 L 393.246 8.132 393.317 22.638 M117.525 48.627 C 117.606 48.838,117.371 49.294,117.003 49.640 C 116.621 49.998,116.334 50.582,116.334 50.998 C 116.334 51.432,116.055 51.969,115.644 52.326 C 115.069 52.827,114.955 53.170,114.955 54.412 C 114.955 55.693,114.860 55.960,114.266 56.350 C 113.766 56.677,113.577 57.046,113.577 57.693 C 113.577 58.287,113.392 58.701,113.025 58.930 C 112.686 59.142,112.474 59.573,112.474 60.051 C 112.474 60.523,112.204 61.081,111.785 61.475 C 111.223 62.003,111.096 62.384,111.096 63.541 C 111.096 64.710,110.975 65.064,110.407 65.558 C 109.959 65.947,109.717 66.446,109.717 66.980 C 109.717 67.553,109.508 67.939,109.028 68.254 C 108.431 68.646,108.339 68.908,108.339 70.228 C 108.339 71.497,108.225 71.855,107.650 72.388 C 107.217 72.790,106.961 73.327,106.961 73.835 C 106.961 74.393,106.747 74.783,106.272 75.095 C 105.793 75.409,105.582 75.796,105.582 76.365 C 105.582 76.885,105.381 77.309,105.031 77.528 C 104.587 77.805,104.480 78.171,104.480 79.410 C 104.480 80.707,104.372 81.042,103.790 81.547 C 103.343 81.936,103.101 82.435,103.101 82.969 C 103.101 83.542,102.892 83.928,102.412 84.243 C 101.809 84.638,101.723 84.893,101.723 86.285 C 101.723 87.678,101.637 87.932,101.034 88.328 C 100.545 88.648,100.345 89.027,100.345 89.629 C 100.345 90.207,100.124 90.652,99.655 91.021 C 99.168 91.404,98.966 91.831,98.966 92.476 C 98.966 93.146,98.783 93.510,98.277 93.841 C 97.686 94.229,97.588 94.499,97.588 95.753 C 97.588 96.967,97.472 97.314,96.899 97.812 C 96.453 98.200,96.210 98.700,96.210 99.230 C 96.210 99.767,96.020 100.151,95.658 100.345 C 95.275 100.550,95.107 100.922,95.107 101.563 C 95.107 102.244,94.926 102.605,94.418 102.938 C 93.826 103.326,93.728 103.596,93.728 104.851 C 93.728 106.054,93.606 106.428,93.039 106.961 C 92.608 107.366,92.350 107.911,92.350 108.416 C 92.350 108.950,92.116 109.409,91.661 109.767 C 91.079 110.224,90.972 110.539,90.972 111.785 C 90.972 113.031,90.864 113.346,90.283 113.803 C 89.828 114.161,89.593 114.620,89.593 115.152 C 89.593 115.669,89.346 116.174,88.904 116.558 C 88.466 116.939,88.215 117.447,88.215 117.954 C 88.215 118.500,87.998 118.893,87.526 119.203 C 86.923 119.598,86.837 119.853,86.837 121.236 C 86.837 122.519,86.733 122.882,86.285 123.161 C 85.946 123.373,85.734 123.804,85.734 124.282 C 85.734 124.754,85.464 125.313,85.045 125.706 C 84.478 126.239,84.356 126.613,84.356 127.816 C 84.356 129.071,84.258 129.341,83.666 129.729 C 83.158 130.062,82.977 130.423,82.977 131.107 C 82.977 131.792,82.797 132.152,82.288 132.486 C 81.779 132.819,81.599 133.180,81.599 133.864 C 81.599 134.548,81.419 134.909,80.910 135.242 C 80.306 135.638,80.221 135.892,80.221 137.285 C 80.221 138.677,80.135 138.932,79.531 139.327 C 79.068 139.630,78.842 140.031,78.842 140.549 C 78.842 141.028,78.581 141.547,78.153 141.920 C 77.580 142.417,77.464 142.765,77.464 143.976 C 77.464 145.091,77.335 145.543,76.912 145.904 C 76.590 146.181,76.361 146.718,76.361 147.200 C 76.361 147.774,76.152 148.160,75.672 148.475 C 75.196 148.786,74.983 149.177,74.983 149.735 C 74.983 150.243,74.727 150.780,74.294 151.182 C 73.719 151.715,73.604 152.073,73.604 153.342 C 73.604 154.661,73.513 154.924,72.915 155.316 C 72.435 155.630,72.226 156.017,72.226 156.590 C 72.226 157.124,71.984 157.623,71.537 158.012 C 70.969 158.505,70.848 158.860,70.848 160.028 C 70.848 161.195,70.727 161.550,70.159 162.044 C 69.749 162.400,69.469 162.938,69.469 163.371 C 69.469 163.794,69.180 164.367,68.780 164.738 C 68.360 165.127,68.091 165.679,68.091 166.151 C 68.091 166.626,67.878 167.057,67.540 167.269 C 67.101 167.543,66.988 167.912,66.988 169.079 C 66.988 170.286,66.867 170.659,66.299 171.192 C 65.900 171.567,65.610 172.147,65.610 172.571 C 65.610 172.994,65.320 173.574,64.921 173.949 C 64.355 174.480,64.232 174.856,64.232 176.045 C 64.232 177.261,64.121 177.579,63.542 178.035 C 63.088 178.392,62.853 178.852,62.853 179.383 C 62.853 179.900,62.606 180.405,62.164 180.789 C 61.726 181.170,61.475 181.679,61.475 182.186 C 61.475 182.732,61.258 183.125,60.786 183.434 C 60.193 183.822,60.096 184.092,60.096 185.353 C 60.096 186.470,59.965 186.939,59.545 187.319 C 59.242 187.594,58.994 188.149,58.994 188.554 C 58.994 188.983,58.706 189.561,58.305 189.938 C 57.738 190.471,57.615 190.844,57.615 192.047 C 57.615 193.302,57.518 193.573,56.926 193.961 C 56.417 194.294,56.237 194.655,56.237 195.339 C 56.237 196.023,56.057 196.384,55.548 196.717 C 55.039 197.051,54.859 197.411,54.859 198.096 C 54.859 198.780,54.678 199.141,54.170 199.474 C 53.566 199.869,53.480 200.124,53.480 201.516 C 53.480 202.909,53.395 203.163,52.791 203.558 C 52.328 203.862,52.102 204.263,52.102 204.781 C 52.102 205.260,51.841 205.779,51.413 206.151 C 50.835 206.654,50.724 206.993,50.724 208.259 C 50.724 209.485,50.621 209.822,50.172 210.062 C 49.785 210.269,49.621 210.639,49.621 211.306 C 49.621 212.014,49.446 212.369,48.932 212.706 C 48.507 212.985,48.243 213.417,48.243 213.833 C 48.243 214.924,47.732 215.677,47.259 215.284 C 46.720 214.837,46.657 49.112,47.195 48.573 C 47.723 48.045,117.322 48.098,117.525 48.627 M270.182 49.428 C 270.282 50.047,270.595 50.647,270.944 50.891 C 271.430 51.231,271.537 51.583,271.537 52.836 C 271.537 54.140,271.639 54.446,272.226 54.908 C 272.663 55.252,272.915 55.728,272.915 56.209 C 272.915 56.662,273.193 57.229,273.604 57.615 C 274.003 57.990,274.294 58.571,274.294 58.994 C 274.294 59.417,274.584 59.997,274.983 60.372 C 275.547 60.902,275.672 61.280,275.672 62.456 C 275.672 63.684,275.772 63.958,276.361 64.344 C 276.875 64.681,277.050 65.037,277.050 65.744 C 277.050 66.411,277.214 66.781,277.602 66.988 C 278.046 67.226,278.153 67.565,278.153 68.742 C 278.153 69.941,278.275 70.315,278.842 70.848 C 279.241 71.223,279.531 71.803,279.531 72.226 C 279.531 72.649,279.821 73.230,280.221 73.604 C 280.620 73.979,280.910 74.560,280.910 74.983 C 280.910 75.406,281.200 75.986,281.599 76.361 C 282.166 76.894,282.288 77.268,282.288 78.470 C 282.288 79.725,282.386 79.996,282.977 80.384 C 283.480 80.713,283.666 81.079,283.666 81.737 C 283.666 82.394,283.853 82.760,284.356 83.090 C 284.952 83.481,285.045 83.745,285.045 85.053 C 285.045 86.322,285.155 86.661,285.734 87.164 C 286.147 87.523,286.423 88.058,286.423 88.498 C 286.423 88.902,286.671 89.457,286.975 89.731 C 287.278 90.006,287.526 90.574,287.526 90.994 C 287.526 91.481,287.776 91.955,288.215 92.301 C 288.791 92.754,288.904 93.077,288.904 94.264 C 288.904 95.425,289.030 95.801,289.593 96.323 C 290.044 96.741,290.283 97.259,290.283 97.820 C 290.283 98.431,290.481 98.808,290.972 99.129 C 291.561 99.515,291.661 99.789,291.661 101.017 C 291.661 102.193,291.786 102.571,292.350 103.101 C 292.749 103.476,293.039 104.056,293.039 104.480 C 293.039 104.903,293.329 105.483,293.728 105.858 C 294.147 106.251,294.418 106.810,294.418 107.282 C 294.418 107.760,294.630 108.191,294.969 108.403 C 295.416 108.682,295.520 109.046,295.520 110.329 C 295.520 111.711,295.607 111.967,296.210 112.362 C 296.682 112.671,296.899 113.064,296.899 113.610 C 296.899 114.117,297.150 114.626,297.588 115.007 C 298.165 115.508,298.277 115.850,298.277 117.102 C 298.277 118.369,298.382 118.680,298.966 119.140 C 299.403 119.483,299.655 119.959,299.655 120.441 C 299.655 120.894,299.933 121.460,300.345 121.847 C 300.912 122.380,301.034 122.753,301.034 123.956 C 301.034 125.211,301.131 125.482,301.723 125.870 C 302.226 126.199,302.412 126.565,302.412 127.223 C 302.412 127.880,302.599 128.246,303.101 128.576 C 303.615 128.913,303.790 129.268,303.790 129.976 C 303.790 130.643,303.954 131.013,304.342 131.220 C 304.787 131.458,304.893 131.797,304.893 132.973 C 304.893 134.173,305.016 134.547,305.582 135.079 C 305.981 135.454,306.272 136.034,306.272 136.458 C 306.272 136.881,306.562 137.461,306.961 137.836 C 307.528 138.369,307.650 138.742,307.650 139.945 C 307.650 141.200,307.747 141.471,308.339 141.859 C 308.848 142.192,309.028 142.553,309.028 143.237 C 309.028 143.921,309.209 144.282,309.717 144.615 C 310.220 144.945,310.407 145.311,310.407 145.968 C 310.407 146.626,310.593 146.992,311.096 147.321 C 311.688 147.709,311.785 147.980,311.785 149.235 C 311.785 150.437,311.907 150.811,312.474 151.344 C 312.893 151.737,313.163 152.296,313.163 152.768 C 313.163 153.246,313.375 153.677,313.715 153.889 C 314.162 154.168,314.266 154.532,314.266 155.815 C 314.266 157.197,314.353 157.453,314.955 157.848 C 315.431 158.159,315.644 158.549,315.644 159.108 C 315.644 159.616,315.900 160.153,316.334 160.555 C 316.776 160.964,317.023 161.492,317.023 162.026 C 317.023 162.610,317.229 162.994,317.712 163.310 C 318.304 163.698,318.401 163.969,318.401 165.224 C 318.401 166.426,318.523 166.800,319.090 167.333 C 319.489 167.708,319.779 168.288,319.779 168.711 C 319.779 169.134,320.070 169.715,320.469 170.090 C 321.033 170.620,321.158 170.998,321.158 172.173 C 321.158 173.401,321.258 173.675,321.847 174.061 C 322.361 174.398,322.536 174.754,322.536 175.462 C 322.536 176.129,322.700 176.498,323.088 176.706 C 323.532 176.944,323.639 177.283,323.639 178.459 C 323.639 179.658,323.761 180.033,324.328 180.565 C 324.727 180.940,325.017 181.520,325.017 181.943 C 325.017 182.367,325.307 182.947,325.706 183.322 C 326.105 183.697,326.396 184.277,326.396 184.700 C 326.396 185.123,326.686 185.704,327.085 186.079 C 327.652 186.611,327.774 186.985,327.774 188.188 C 327.774 189.443,327.871 189.713,328.463 190.101 C 328.966 190.430,329.152 190.797,329.152 191.454 C 329.152 192.112,329.339 192.478,329.841 192.807 C 330.438 193.198,330.531 193.462,330.531 194.770 C 330.531 196.039,330.641 196.378,331.220 196.881 C 331.633 197.240,331.909 197.775,331.909 198.215 C 331.909 198.619,332.157 199.174,332.460 199.449 C 332.764 199.723,333.012 200.279,333.012 200.684 C 333.012 201.113,333.299 201.690,333.701 202.068 C 334.253 202.586,334.390 202.982,334.390 204.058 C 334.390 205.137,334.526 205.528,335.079 206.041 C 335.530 206.458,335.768 206.976,335.768 207.537 C 335.768 208.148,335.967 208.525,336.458 208.847 C 337.052 209.236,337.147 209.504,337.147 210.785 C 337.147 212.027,337.260 212.370,337.836 212.870 C 338.246 213.227,338.525 213.764,338.525 214.199 C 338.525 214.620,338.816 215.201,339.214 215.575 C 339.633 215.969,339.904 216.528,339.904 217.000 C 339.904 217.478,340.115 217.909,340.455 218.120 C 340.902 218.400,341.006 218.763,341.006 220.046 C 341.006 221.429,341.093 221.684,341.695 222.079 C 342.171 222.391,342.385 222.781,342.385 223.339 C 342.385 223.847,342.640 224.385,343.074 224.786 C 343.640 225.311,343.763 225.683,343.763 226.870 C 343.763 228.076,343.875 228.403,344.440 228.847 C 346.262 230.281,356.557 230.192,197.283 230.117 L 49.759 230.048 49.678 228.384 C 49.607 226.904,49.675 226.648,50.299 226.062 C 50.715 225.671,50.999 225.100,50.999 224.656 C 50.999 224.163,51.234 223.755,51.688 223.457 C 52.203 223.121,52.378 222.765,52.378 222.057 C 52.378 221.390,52.542 221.021,52.929 220.813 C 53.374 220.575,53.480 220.236,53.480 219.060 C 53.480 217.860,53.603 217.486,54.170 216.954 C 54.569 216.579,54.859 215.999,54.859 215.575 C 54.859 215.152,55.149 214.572,55.548 214.197 C 56.115 213.664,56.237 213.291,56.237 212.088 C 56.237 210.833,56.335 210.562,56.926 210.175 C 57.435 209.841,57.615 209.481,57.615 208.796 C 57.615 208.112,57.796 207.751,58.305 207.418 C 58.807 207.089,58.994 206.722,58.994 206.065 C 58.994 205.407,59.180 205.041,59.683 204.712 C 60.275 204.324,60.372 204.053,60.372 202.798 C 60.372 201.596,60.494 201.222,61.061 200.689 C 61.463 200.312,61.751 199.734,61.751 199.305 C 61.751 198.901,61.999 198.345,62.302 198.070 C 62.722 197.690,62.853 197.221,62.853 196.104 C 62.853 194.843,62.950 194.574,63.542 194.186 C 64.051 193.852,64.232 193.492,64.232 192.807 C 64.232 192.123,64.412 191.762,64.921 191.429 C 65.423 191.100,65.610 190.733,65.610 190.076 C 65.610 189.418,65.797 189.052,66.299 188.723 C 66.891 188.335,66.988 188.064,66.988 186.809 C 66.988 185.607,67.110 185.233,67.677 184.700 C 68.077 184.325,68.367 183.745,68.367 183.322 C 68.367 182.899,68.657 182.318,69.056 181.943 C 69.454 181.569,69.745 180.988,69.745 180.567 C 69.745 180.132,70.024 179.595,70.434 179.238 C 71.012 178.736,71.123 178.396,71.123 177.131 C 71.123 175.905,71.226 175.567,71.675 175.327 C 72.058 175.122,72.226 174.750,72.226 174.109 C 72.226 173.428,72.407 173.067,72.915 172.734 C 73.507 172.346,73.604 172.076,73.604 170.820 C 73.604 169.618,73.727 169.244,74.294 168.711 C 74.693 168.336,74.983 167.756,74.983 167.333 C 74.983 166.910,75.273 166.329,75.672 165.955 C 76.070 165.580,76.361 164.999,76.361 164.578 C 76.361 164.144,76.640 163.606,77.050 163.249 C 77.626 162.749,77.739 162.406,77.739 161.164 C 77.739 159.883,77.835 159.615,78.429 159.226 C 78.943 158.889,79.118 158.533,79.118 157.826 C 79.118 157.159,79.282 156.789,79.669 156.582 C 80.114 156.344,80.221 156.004,80.221 154.828 C 80.221 153.629,80.343 153.255,80.910 152.722 C 81.309 152.347,81.599 151.767,81.599 151.344 C 81.599 150.921,81.889 150.340,82.288 149.966 C 82.686 149.591,82.977 149.010,82.977 148.589 C 82.977 148.155,83.256 147.617,83.666 147.260 C 84.245 146.757,84.356 146.418,84.356 145.149 C 84.356 143.841,84.448 143.577,85.045 143.186 C 85.547 142.857,85.734 142.491,85.734 141.833 C 85.734 141.176,85.921 140.809,86.423 140.480 C 87.015 140.093,87.112 139.822,87.112 138.567 C 87.112 137.364,87.234 136.990,87.802 136.458 C 88.220 136.064,88.491 135.506,88.491 135.034 C 88.491 134.555,88.703 134.125,89.042 133.913 C 89.406 133.685,89.593 133.270,89.593 132.690 C 89.593 132.081,89.805 131.645,90.283 131.269 C 90.871 130.807,90.972 130.501,90.972 129.188 C 90.972 127.850,91.062 127.590,91.661 127.197 C 92.163 126.868,92.350 126.502,92.350 125.844 C 92.350 125.187,92.537 124.821,93.039 124.491 C 93.631 124.104,93.728 123.833,93.728 122.578 C 93.728 121.375,93.851 121.001,94.418 120.469 C 94.817 120.094,95.107 119.513,95.107 119.090 C 95.107 118.667,95.397 118.087,95.796 117.712 C 96.194 117.338,96.485 116.757,96.485 116.335 C 96.485 115.901,96.764 115.364,97.174 115.007 C 97.753 114.504,97.864 114.164,97.864 112.899 C 97.864 111.673,97.967 111.336,98.415 111.096 C 98.798 110.891,98.966 110.519,98.966 109.877 C 98.966 109.196,99.147 108.835,99.655 108.502 C 100.247 108.115,100.345 107.844,100.345 106.589 C 100.345 105.386,100.467 105.012,101.034 104.480 C 101.433 104.105,101.723 103.525,101.723 103.101 C 101.723 102.678,102.013 102.098,102.412 101.723 C 102.829 101.331,103.101 100.771,103.101 100.303 C 103.101 99.783,103.327 99.383,103.790 99.079 C 104.394 98.683,104.480 98.429,104.480 97.037 C 104.480 95.644,104.566 95.390,105.169 94.994 C 105.678 94.661,105.858 94.300,105.858 93.616 C 105.858 92.932,106.038 92.571,106.547 92.238 C 107.139 91.850,107.236 91.580,107.236 90.319 C 107.236 89.202,107.368 88.733,107.788 88.353 C 108.091 88.078,108.339 87.523,108.339 87.118 C 108.339 86.689,108.627 86.111,109.028 85.734 C 109.427 85.360,109.717 84.779,109.717 84.357 C 109.717 83.923,109.996 83.386,110.407 83.029 C 110.982 82.528,111.096 82.185,111.096 80.943 C 111.096 79.662,111.191 79.395,111.785 79.005 C 112.265 78.691,112.474 78.304,112.474 77.731 C 112.474 77.198,112.716 76.698,113.163 76.310 C 113.732 75.816,113.853 75.461,113.853 74.292 C 113.853 73.135,113.980 72.754,114.542 72.226 C 114.940 71.852,115.231 71.271,115.231 70.849 C 115.231 70.415,115.510 69.878,115.920 69.521 C 116.366 69.133,116.609 68.633,116.609 68.102 C 116.609 67.565,116.799 67.182,117.161 66.988 C 117.617 66.744,117.712 66.411,117.712 65.055 C 117.712 63.612,117.794 63.363,118.401 62.966 C 118.873 62.656,119.090 62.263,119.090 61.717 C 119.090 61.210,119.341 60.702,119.779 60.321 C 120.348 59.827,120.469 59.472,120.469 58.303 C 120.469 57.146,120.596 56.765,121.158 56.237 C 121.556 55.863,121.847 55.282,121.847 54.860 C 121.847 54.426,122.126 53.889,122.536 53.532 C 122.967 53.157,123.225 52.641,123.225 52.154 C 123.225 51.666,123.483 51.150,123.915 50.775 C 124.347 50.399,124.604 49.885,124.604 49.393 C 124.604 48.962,124.687 48.527,124.788 48.426 C 124.889 48.324,157.606 48.273,197.492 48.311 L 270.011 48.380 270.182 49.428 M347.567 48.573 C 347.811 48.817,347.898 51.208,347.898 57.615 C 347.898 66.924,347.888 66.988,346.520 66.988 C 346.125 66.988,345.657 67.134,345.479 67.313 C 344.980 67.811,345.604 68.367,346.662 68.367 C 347.230 68.367,347.625 68.528,347.731 68.803 C 348.001 69.507,347.917 217.324,347.646 217.752 C 347.086 218.637,346.520 217.841,346.520 216.167 C 346.520 214.732,346.437 214.482,345.830 214.085 C 345.350 213.770,345.141 213.384,345.141 212.811 C 345.141 212.277,344.899 211.778,344.452 211.389 C 343.871 210.884,343.763 210.549,343.763 209.252 C 343.763 208.012,343.656 207.647,343.212 207.369 C 342.865 207.153,342.660 206.726,342.660 206.220 C 342.660 205.690,342.425 205.231,341.971 204.874 C 341.516 204.516,341.282 204.057,341.282 203.525 C 341.282 203.008,341.034 202.503,340.593 202.119 C 340.017 201.618,339.904 201.275,339.904 200.034 C 339.904 198.752,339.808 198.485,339.214 198.096 C 338.734 197.781,338.525 197.395,338.525 196.822 C 338.525 196.288,338.283 195.789,337.836 195.400 C 337.268 194.906,337.147 194.552,337.147 193.382 C 337.147 192.226,337.020 191.844,336.458 191.316 C 336.039 190.923,335.768 190.364,335.768 189.892 C 335.768 189.414,335.556 188.983,335.217 188.771 C 334.770 188.492,334.666 188.128,334.666 186.846 C 334.666 185.463,334.579 185.207,333.977 184.813 C 333.501 184.501,333.287 184.111,333.287 183.553 C 333.287 183.044,333.031 182.507,332.598 182.105 C 332.156 181.696,331.909 181.168,331.909 180.634 C 331.909 180.050,331.703 179.667,331.220 179.350 C 330.628 178.962,330.531 178.692,330.531 177.437 C 330.531 176.234,330.409 175.860,329.841 175.327 C 329.443 174.953,329.152 174.372,329.152 173.951 C 329.152 173.516,328.874 172.979,328.463 172.622 C 327.885 172.119,327.774 171.780,327.774 170.511 C 327.774 169.203,327.681 168.939,327.085 168.548 C 326.577 168.215,326.396 167.854,326.396 167.173 C 326.396 166.532,326.227 166.159,325.844 165.955 C 325.483 165.761,325.293 165.377,325.293 164.840 C 325.293 164.310,325.050 163.810,324.604 163.422 C 324.036 162.928,323.915 162.574,323.915 161.404 C 323.915 160.248,323.787 159.866,323.225 159.338 C 322.826 158.964,322.536 158.383,322.536 157.960 C 322.536 157.537,322.246 156.957,321.847 156.582 C 321.280 156.049,321.158 155.675,321.158 154.472 C 321.158 153.217,321.060 152.947,320.469 152.559 C 319.966 152.230,319.779 151.863,319.779 151.206 C 319.779 150.549,319.593 150.182,319.090 149.853 C 318.602 149.533,318.401 149.154,318.401 148.552 C 318.401 147.973,318.181 147.528,317.712 147.160 C 317.117 146.692,317.023 146.397,317.023 145.002 C 317.023 143.629,316.940 143.360,316.471 143.212 C 316.069 143.084,315.920 142.794,315.920 142.138 C 315.920 141.537,315.693 141.026,315.231 140.593 C 314.679 140.074,314.542 139.678,314.542 138.602 C 314.542 137.523,314.406 137.133,313.853 136.620 C 313.410 136.210,313.163 135.682,313.163 135.148 C 313.163 134.564,312.957 134.181,312.474 133.864 C 311.882 133.476,311.785 133.206,311.785 131.951 C 311.785 130.748,311.663 130.374,311.096 129.841 C 310.697 129.467,310.407 128.886,310.407 128.463 C 310.407 128.040,310.116 127.460,309.717 127.085 C 309.319 126.711,309.028 126.129,309.028 125.708 C 309.028 125.274,308.750 124.736,308.339 124.380 C 307.761 123.877,307.650 123.537,307.650 122.272 C 307.650 121.046,307.547 120.709,307.099 120.469 C 306.735 120.274,306.547 119.891,306.547 119.343 C 306.547 118.811,306.299 118.283,305.858 117.874 C 305.301 117.358,305.169 116.972,305.169 115.868 C 305.169 114.765,305.035 114.374,304.480 113.853 C 304.081 113.478,303.790 112.897,303.790 112.474 C 303.790 112.051,303.500 111.471,303.101 111.096 C 302.684 110.704,302.412 110.143,302.412 109.676 C 302.412 109.156,302.187 108.755,301.723 108.452 C 301.120 108.056,301.034 107.802,301.034 106.409 C 301.034 105.017,300.948 104.762,300.345 104.367 C 299.836 104.034,299.655 103.673,299.655 102.989 C 299.655 102.304,299.475 101.944,298.966 101.610 C 298.364 101.216,298.277 100.960,298.277 99.578 C 298.277 98.295,298.173 97.931,297.726 97.652 C 297.386 97.440,297.174 97.009,297.174 96.531 C 297.174 96.059,296.904 95.500,296.485 95.107 C 296.087 94.733,295.796 94.152,295.796 93.730 C 295.796 93.296,295.517 92.759,295.107 92.402 C 294.528 91.899,294.418 91.560,294.418 90.291 C 294.418 88.982,294.325 88.718,293.728 88.328 C 293.256 88.018,293.039 87.625,293.039 87.079 C 293.039 86.572,292.788 86.063,292.350 85.682 C 291.782 85.188,291.661 84.834,291.661 83.665 C 291.661 82.508,291.534 82.127,290.972 81.599 C 290.570 81.222,290.283 80.644,290.283 80.215 C 290.283 79.810,290.034 79.254,289.731 78.980 C 289.428 78.706,289.180 78.150,289.180 77.745 C 289.180 77.316,288.892 76.738,288.491 76.361 C 287.938 75.842,287.802 75.447,287.802 74.370 C 287.802 73.291,287.666 72.901,287.112 72.388 C 286.670 71.978,286.423 71.451,286.423 70.917 C 286.423 70.333,286.217 69.949,285.734 69.633 C 285.142 69.245,285.045 68.974,285.045 67.719 C 285.045 66.516,284.923 66.143,284.356 65.610 C 283.957 65.236,283.666 64.655,283.666 64.233 C 283.666 63.799,283.388 63.262,282.977 62.905 C 282.403 62.406,282.288 62.060,282.288 60.837 C 282.288 59.615,282.173 59.269,281.599 58.770 C 281.153 58.382,280.910 57.881,280.910 57.351 C 280.910 56.814,280.720 56.431,280.358 56.237 C 279.994 56.042,279.807 55.660,279.807 55.112 C 279.807 54.580,279.559 54.051,279.118 53.642 C 278.566 53.131,278.429 52.738,278.429 51.672 C 278.429 50.612,278.282 50.187,277.709 49.590 C 277.314 49.177,277.073 48.705,277.174 48.541 C 277.453 48.090,347.116 48.122,347.567 48.573 " stroke="none" fill="#040404" fill-rule="evenodd"></path></g></svg>